<mxfile host="Electron" agent="Mozilla/5.0 (Windows NT 10.0; Win64; x64) AppleWebKit/537.36 (KHTML, like Gecko) draw.io/24.7.8 Chrome/128.0.6613.36 Electron/32.0.1 Safari/537.36" version="24.7.8">
  <diagram name="Page-1" id="SzrSBOMqE0E01EoqgDhA">
    <mxGraphModel dx="2350" dy="887" grid="0" gridSize="10" guides="0" tooltips="1" connect="1" arrows="1" fold="1" page="1" pageScale="1" pageWidth="850" pageHeight="1100" background="#E6E6E6" math="0" shadow="1">
      <root>
        <mxCell id="0" />
        <mxCell id="1" parent="0" />
        <mxCell id="zgshCLYlO7Ul1Uow3WSi-1" value="Shops" style="shape=table;startSize=30;container=1;collapsible=1;childLayout=tableLayout;fixedRows=1;rowLines=0;fontStyle=1;align=center;resizeLast=1;html=1;fontSize=20;labelBackgroundColor=none;labelBorderColor=none;textShadow=1;whiteSpace=wrap;" parent="1" vertex="1">
          <mxGeometry x="80" y="80" width="180" height="240" as="geometry" />
        </mxCell>
        <mxCell id="zgshCLYlO7Ul1Uow3WSi-2" value="" style="shape=tableRow;horizontal=0;startSize=0;swimlaneHead=0;swimlaneBody=0;fillColor=none;collapsible=0;dropTarget=0;points=[[0,0.5],[1,0.5]];portConstraint=eastwest;top=0;left=0;right=0;bottom=1;fontSize=20;labelBackgroundColor=none;labelBorderColor=none;textShadow=1;whiteSpace=wrap;html=1;" parent="zgshCLYlO7Ul1Uow3WSi-1" vertex="1">
          <mxGeometry y="30" width="180" height="30" as="geometry" />
        </mxCell>
        <mxCell id="zgshCLYlO7Ul1Uow3WSi-3" value="PK" style="shape=partialRectangle;connectable=0;fillColor=none;top=0;left=0;bottom=0;right=0;fontStyle=1;overflow=hidden;whiteSpace=wrap;html=1;fontSize=20;labelBackgroundColor=none;labelBorderColor=none;textShadow=1;" parent="zgshCLYlO7Ul1Uow3WSi-2" vertex="1">
          <mxGeometry width="30" height="30" as="geometry">
            <mxRectangle width="30" height="30" as="alternateBounds" />
          </mxGeometry>
        </mxCell>
        <mxCell id="zgshCLYlO7Ul1Uow3WSi-4" value="ShopID" style="shape=partialRectangle;connectable=0;fillColor=none;top=0;left=0;bottom=0;right=0;align=left;spacingLeft=6;fontStyle=5;overflow=hidden;whiteSpace=wrap;html=1;fontSize=20;labelBackgroundColor=none;labelBorderColor=none;textShadow=1;" parent="zgshCLYlO7Ul1Uow3WSi-2" vertex="1">
          <mxGeometry x="30" width="150" height="30" as="geometry">
            <mxRectangle width="150" height="30" as="alternateBounds" />
          </mxGeometry>
        </mxCell>
        <mxCell id="zgshCLYlO7Ul1Uow3WSi-5" value="" style="shape=tableRow;horizontal=0;startSize=0;swimlaneHead=0;swimlaneBody=0;fillColor=none;collapsible=0;dropTarget=0;points=[[0,0.5],[1,0.5]];portConstraint=eastwest;top=0;left=0;right=0;bottom=0;fontSize=20;labelBackgroundColor=none;labelBorderColor=none;textShadow=1;whiteSpace=wrap;html=1;" parent="zgshCLYlO7Ul1Uow3WSi-1" vertex="1">
          <mxGeometry y="60" width="180" height="30" as="geometry" />
        </mxCell>
        <mxCell id="zgshCLYlO7Ul1Uow3WSi-6" value="" style="shape=partialRectangle;connectable=0;fillColor=none;top=0;left=0;bottom=0;right=0;editable=1;overflow=hidden;whiteSpace=wrap;html=1;fontSize=20;labelBackgroundColor=none;labelBorderColor=none;textShadow=1;" parent="zgshCLYlO7Ul1Uow3WSi-5" vertex="1">
          <mxGeometry width="30" height="30" as="geometry">
            <mxRectangle width="30" height="30" as="alternateBounds" />
          </mxGeometry>
        </mxCell>
        <mxCell id="zgshCLYlO7Ul1Uow3WSi-7" value="ShopName" style="shape=partialRectangle;connectable=0;fillColor=none;top=0;left=0;bottom=0;right=0;align=left;spacingLeft=6;overflow=hidden;whiteSpace=wrap;html=1;fontSize=20;labelBackgroundColor=none;labelBorderColor=none;textShadow=1;" parent="zgshCLYlO7Ul1Uow3WSi-5" vertex="1">
          <mxGeometry x="30" width="150" height="30" as="geometry">
            <mxRectangle width="150" height="30" as="alternateBounds" />
          </mxGeometry>
        </mxCell>
        <mxCell id="zgshCLYlO7Ul1Uow3WSi-8" value="" style="shape=tableRow;horizontal=0;startSize=0;swimlaneHead=0;swimlaneBody=0;fillColor=none;collapsible=0;dropTarget=0;points=[[0,0.5],[1,0.5]];portConstraint=eastwest;top=0;left=0;right=0;bottom=0;fontSize=20;labelBackgroundColor=none;labelBorderColor=none;textShadow=1;whiteSpace=wrap;html=1;" parent="zgshCLYlO7Ul1Uow3WSi-1" vertex="1">
          <mxGeometry y="90" width="180" height="30" as="geometry" />
        </mxCell>
        <mxCell id="zgshCLYlO7Ul1Uow3WSi-9" value="" style="shape=partialRectangle;connectable=0;fillColor=none;top=0;left=0;bottom=0;right=0;editable=1;overflow=hidden;whiteSpace=wrap;html=1;fontSize=20;labelBackgroundColor=none;labelBorderColor=none;textShadow=1;" parent="zgshCLYlO7Ul1Uow3WSi-8" vertex="1">
          <mxGeometry width="30" height="30" as="geometry">
            <mxRectangle width="30" height="30" as="alternateBounds" />
          </mxGeometry>
        </mxCell>
        <mxCell id="zgshCLYlO7Ul1Uow3WSi-10" value="ShopNumber" style="shape=partialRectangle;connectable=0;fillColor=none;top=0;left=0;bottom=0;right=0;align=left;spacingLeft=6;overflow=hidden;whiteSpace=wrap;html=1;fontSize=20;labelBackgroundColor=none;labelBorderColor=none;textShadow=1;" parent="zgshCLYlO7Ul1Uow3WSi-8" vertex="1">
          <mxGeometry x="30" width="150" height="30" as="geometry">
            <mxRectangle width="150" height="30" as="alternateBounds" />
          </mxGeometry>
        </mxCell>
        <mxCell id="zgshCLYlO7Ul1Uow3WSi-11" value="" style="shape=tableRow;horizontal=0;startSize=0;swimlaneHead=0;swimlaneBody=0;fillColor=none;collapsible=0;dropTarget=0;points=[[0,0.5],[1,0.5]];portConstraint=eastwest;top=0;left=0;right=0;bottom=0;fontSize=20;labelBackgroundColor=none;labelBorderColor=none;textShadow=1;whiteSpace=wrap;html=1;" parent="zgshCLYlO7Ul1Uow3WSi-1" vertex="1">
          <mxGeometry y="120" width="180" height="30" as="geometry" />
        </mxCell>
        <mxCell id="zgshCLYlO7Ul1Uow3WSi-12" value="" style="shape=partialRectangle;connectable=0;fillColor=none;top=0;left=0;bottom=0;right=0;editable=1;overflow=hidden;whiteSpace=wrap;html=1;fontSize=20;labelBackgroundColor=none;labelBorderColor=none;textShadow=1;" parent="zgshCLYlO7Ul1Uow3WSi-11" vertex="1">
          <mxGeometry width="30" height="30" as="geometry">
            <mxRectangle width="30" height="30" as="alternateBounds" />
          </mxGeometry>
        </mxCell>
        <mxCell id="zgshCLYlO7Ul1Uow3WSi-13" value="BusinessType" style="shape=partialRectangle;connectable=0;fillColor=none;top=0;left=0;bottom=0;right=0;align=left;spacingLeft=6;overflow=hidden;whiteSpace=wrap;html=1;fontSize=20;labelBackgroundColor=none;labelBorderColor=none;textShadow=1;" parent="zgshCLYlO7Ul1Uow3WSi-11" vertex="1">
          <mxGeometry x="30" width="150" height="30" as="geometry">
            <mxRectangle width="150" height="30" as="alternateBounds" />
          </mxGeometry>
        </mxCell>
        <mxCell id="zgshCLYlO7Ul1Uow3WSi-14" value="" style="shape=tableRow;horizontal=0;startSize=0;swimlaneHead=0;swimlaneBody=0;fillColor=none;collapsible=0;dropTarget=0;points=[[0,0.5],[1,0.5]];portConstraint=eastwest;top=0;left=0;right=0;bottom=0;fontSize=20;labelBackgroundColor=none;labelBorderColor=none;textShadow=1;whiteSpace=wrap;html=1;" parent="zgshCLYlO7Ul1Uow3WSi-1" vertex="1">
          <mxGeometry y="150" width="180" height="30" as="geometry" />
        </mxCell>
        <mxCell id="zgshCLYlO7Ul1Uow3WSi-15" value="" style="shape=partialRectangle;connectable=0;fillColor=none;top=0;left=0;bottom=0;right=0;editable=1;overflow=hidden;whiteSpace=wrap;html=1;fontSize=20;labelBackgroundColor=none;labelBorderColor=none;textShadow=1;" parent="zgshCLYlO7Ul1Uow3WSi-14" vertex="1">
          <mxGeometry width="30" height="30" as="geometry">
            <mxRectangle width="30" height="30" as="alternateBounds" />
          </mxGeometry>
        </mxCell>
        <mxCell id="zgshCLYlO7Ul1Uow3WSi-16" value="CovarageArea" style="shape=partialRectangle;connectable=0;fillColor=none;top=0;left=0;bottom=0;right=0;align=left;spacingLeft=6;overflow=hidden;whiteSpace=wrap;html=1;fontSize=20;labelBackgroundColor=none;labelBorderColor=none;textShadow=1;" parent="zgshCLYlO7Ul1Uow3WSi-14" vertex="1">
          <mxGeometry x="30" width="150" height="30" as="geometry">
            <mxRectangle width="150" height="30" as="alternateBounds" />
          </mxGeometry>
        </mxCell>
        <mxCell id="zgshCLYlO7Ul1Uow3WSi-17" value="" style="shape=tableRow;horizontal=0;startSize=0;swimlaneHead=0;swimlaneBody=0;fillColor=none;collapsible=0;dropTarget=0;points=[[0,0.5],[1,0.5]];portConstraint=eastwest;top=0;left=0;right=0;bottom=0;fontSize=20;labelBackgroundColor=none;labelBorderColor=none;textShadow=1;whiteSpace=wrap;html=1;" parent="zgshCLYlO7Ul1Uow3WSi-1" vertex="1">
          <mxGeometry y="180" width="180" height="30" as="geometry" />
        </mxCell>
        <mxCell id="zgshCLYlO7Ul1Uow3WSi-18" value="" style="shape=partialRectangle;connectable=0;fillColor=none;top=0;left=0;bottom=0;right=0;editable=1;overflow=hidden;whiteSpace=wrap;html=1;fontSize=20;labelBackgroundColor=none;labelBorderColor=none;textShadow=1;" parent="zgshCLYlO7Ul1Uow3WSi-17" vertex="1">
          <mxGeometry width="30" height="30" as="geometry">
            <mxRectangle width="30" height="30" as="alternateBounds" />
          </mxGeometry>
        </mxCell>
        <mxCell id="zgshCLYlO7Ul1Uow3WSi-19" value="ContactNumber" style="shape=partialRectangle;connectable=0;fillColor=none;top=0;left=0;bottom=0;right=0;align=left;spacingLeft=6;overflow=hidden;whiteSpace=wrap;html=1;fontSize=20;labelBackgroundColor=none;labelBorderColor=none;textShadow=1;" parent="zgshCLYlO7Ul1Uow3WSi-17" vertex="1">
          <mxGeometry x="30" width="150" height="30" as="geometry">
            <mxRectangle width="150" height="30" as="alternateBounds" />
          </mxGeometry>
        </mxCell>
        <mxCell id="zgshCLYlO7Ul1Uow3WSi-20" value="" style="shape=tableRow;horizontal=0;startSize=0;swimlaneHead=0;swimlaneBody=0;fillColor=none;collapsible=0;dropTarget=0;points=[[0,0.5],[1,0.5]];portConstraint=eastwest;top=0;left=0;right=0;bottom=0;fontSize=20;labelBackgroundColor=none;labelBorderColor=none;textShadow=1;whiteSpace=wrap;html=1;" parent="zgshCLYlO7Ul1Uow3WSi-1" vertex="1">
          <mxGeometry y="210" width="180" height="30" as="geometry" />
        </mxCell>
        <mxCell id="zgshCLYlO7Ul1Uow3WSi-21" value="" style="shape=partialRectangle;connectable=0;fillColor=none;top=0;left=0;bottom=0;right=0;editable=1;overflow=hidden;whiteSpace=wrap;html=1;fontSize=20;labelBackgroundColor=none;labelBorderColor=none;textShadow=1;" parent="zgshCLYlO7Ul1Uow3WSi-20" vertex="1">
          <mxGeometry width="30" height="30" as="geometry">
            <mxRectangle width="30" height="30" as="alternateBounds" />
          </mxGeometry>
        </mxCell>
        <mxCell id="zgshCLYlO7Ul1Uow3WSi-22" value="Location" style="shape=partialRectangle;connectable=0;fillColor=none;top=0;left=0;bottom=0;right=0;align=left;spacingLeft=6;overflow=hidden;whiteSpace=wrap;html=1;fontSize=20;labelBackgroundColor=none;labelBorderColor=none;textShadow=1;" parent="zgshCLYlO7Ul1Uow3WSi-20" vertex="1">
          <mxGeometry x="30" width="150" height="30" as="geometry">
            <mxRectangle width="150" height="30" as="alternateBounds" />
          </mxGeometry>
        </mxCell>
        <mxCell id="zgshCLYlO7Ul1Uow3WSi-23" value="Employees" style="shape=table;startSize=29;container=1;collapsible=1;childLayout=tableLayout;fixedRows=1;rowLines=0;fontStyle=1;align=center;resizeLast=1;html=1;fontSize=20;labelBackgroundColor=none;labelBorderColor=none;textShadow=1;whiteSpace=wrap;" parent="1" vertex="1">
          <mxGeometry x="-529" y="1049" width="180" height="239" as="geometry" />
        </mxCell>
        <mxCell id="zgshCLYlO7Ul1Uow3WSi-24" value="" style="shape=tableRow;horizontal=0;startSize=0;swimlaneHead=0;swimlaneBody=0;fillColor=none;collapsible=0;dropTarget=0;points=[[0,0.5],[1,0.5]];portConstraint=eastwest;top=0;left=0;right=0;bottom=1;fontSize=20;labelBackgroundColor=none;labelBorderColor=none;textShadow=1;whiteSpace=wrap;html=1;" parent="zgshCLYlO7Ul1Uow3WSi-23" vertex="1">
          <mxGeometry y="29" width="180" height="30" as="geometry" />
        </mxCell>
        <mxCell id="zgshCLYlO7Ul1Uow3WSi-25" value="PK" style="shape=partialRectangle;connectable=0;fillColor=none;top=0;left=0;bottom=0;right=0;fontStyle=1;overflow=hidden;whiteSpace=wrap;html=1;fontSize=20;labelBackgroundColor=none;labelBorderColor=none;textShadow=1;" parent="zgshCLYlO7Ul1Uow3WSi-24" vertex="1">
          <mxGeometry width="30" height="30" as="geometry">
            <mxRectangle width="30" height="30" as="alternateBounds" />
          </mxGeometry>
        </mxCell>
        <mxCell id="zgshCLYlO7Ul1Uow3WSi-26" value="EmployeeID" style="shape=partialRectangle;connectable=0;fillColor=none;top=0;left=0;bottom=0;right=0;align=left;spacingLeft=6;fontStyle=5;overflow=hidden;whiteSpace=wrap;html=1;fontSize=20;labelBackgroundColor=none;labelBorderColor=none;textShadow=1;" parent="zgshCLYlO7Ul1Uow3WSi-24" vertex="1">
          <mxGeometry x="30" width="150" height="30" as="geometry">
            <mxRectangle width="150" height="30" as="alternateBounds" />
          </mxGeometry>
        </mxCell>
        <mxCell id="zgshCLYlO7Ul1Uow3WSi-27" value="" style="shape=tableRow;horizontal=0;startSize=0;swimlaneHead=0;swimlaneBody=0;fillColor=none;collapsible=0;dropTarget=0;points=[[0,0.5],[1,0.5]];portConstraint=eastwest;top=0;left=0;right=0;bottom=0;fontSize=20;labelBackgroundColor=none;labelBorderColor=none;textShadow=1;whiteSpace=wrap;html=1;" parent="zgshCLYlO7Ul1Uow3WSi-23" vertex="1">
          <mxGeometry y="59" width="180" height="30" as="geometry" />
        </mxCell>
        <mxCell id="zgshCLYlO7Ul1Uow3WSi-28" value="" style="shape=partialRectangle;connectable=0;fillColor=none;top=0;left=0;bottom=0;right=0;editable=1;overflow=hidden;whiteSpace=wrap;html=1;fontSize=20;labelBackgroundColor=none;labelBorderColor=none;textShadow=1;" parent="zgshCLYlO7Ul1Uow3WSi-27" vertex="1">
          <mxGeometry width="30" height="30" as="geometry">
            <mxRectangle width="30" height="30" as="alternateBounds" />
          </mxGeometry>
        </mxCell>
        <mxCell id="zgshCLYlO7Ul1Uow3WSi-29" value="EmployeeName" style="shape=partialRectangle;connectable=0;fillColor=none;top=0;left=0;bottom=0;right=0;align=left;spacingLeft=6;overflow=hidden;whiteSpace=wrap;html=1;fontSize=20;labelBackgroundColor=none;labelBorderColor=none;textShadow=1;" parent="zgshCLYlO7Ul1Uow3WSi-27" vertex="1">
          <mxGeometry x="30" width="150" height="30" as="geometry">
            <mxRectangle width="150" height="30" as="alternateBounds" />
          </mxGeometry>
        </mxCell>
        <mxCell id="zgshCLYlO7Ul1Uow3WSi-30" value="" style="shape=tableRow;horizontal=0;startSize=0;swimlaneHead=0;swimlaneBody=0;fillColor=none;collapsible=0;dropTarget=0;points=[[0,0.5],[1,0.5]];portConstraint=eastwest;top=0;left=0;right=0;bottom=0;fontSize=20;labelBackgroundColor=none;labelBorderColor=none;textShadow=1;whiteSpace=wrap;html=1;" parent="zgshCLYlO7Ul1Uow3WSi-23" vertex="1">
          <mxGeometry y="89" width="180" height="25" as="geometry" />
        </mxCell>
        <mxCell id="zgshCLYlO7Ul1Uow3WSi-31" value="" style="shape=partialRectangle;connectable=0;fillColor=none;top=0;left=0;bottom=0;right=0;editable=1;overflow=hidden;whiteSpace=wrap;html=1;fontSize=20;labelBackgroundColor=none;labelBorderColor=none;textShadow=1;" parent="zgshCLYlO7Ul1Uow3WSi-30" vertex="1">
          <mxGeometry width="30" height="25" as="geometry">
            <mxRectangle width="30" height="25" as="alternateBounds" />
          </mxGeometry>
        </mxCell>
        <mxCell id="zgshCLYlO7Ul1Uow3WSi-32" value="DateOfBirth" style="shape=partialRectangle;connectable=0;fillColor=none;top=0;left=0;bottom=0;right=0;align=left;spacingLeft=6;overflow=hidden;whiteSpace=wrap;html=1;fontSize=20;labelBackgroundColor=none;labelBorderColor=none;textShadow=1;" parent="zgshCLYlO7Ul1Uow3WSi-30" vertex="1">
          <mxGeometry x="30" width="150" height="25" as="geometry">
            <mxRectangle width="150" height="25" as="alternateBounds" />
          </mxGeometry>
        </mxCell>
        <mxCell id="zgshCLYlO7Ul1Uow3WSi-33" value="" style="shape=tableRow;horizontal=0;startSize=0;swimlaneHead=0;swimlaneBody=0;fillColor=none;collapsible=0;dropTarget=0;points=[[0,0.5],[1,0.5]];portConstraint=eastwest;top=0;left=0;right=0;bottom=0;fontSize=20;labelBackgroundColor=none;labelBorderColor=none;textShadow=1;whiteSpace=wrap;html=1;" parent="zgshCLYlO7Ul1Uow3WSi-23" vertex="1">
          <mxGeometry y="114" width="180" height="30" as="geometry" />
        </mxCell>
        <mxCell id="zgshCLYlO7Ul1Uow3WSi-34" value="" style="shape=partialRectangle;connectable=0;fillColor=none;top=0;left=0;bottom=0;right=0;editable=1;overflow=hidden;whiteSpace=wrap;html=1;fontSize=20;labelBackgroundColor=none;labelBorderColor=none;textShadow=1;" parent="zgshCLYlO7Ul1Uow3WSi-33" vertex="1">
          <mxGeometry width="30" height="30" as="geometry">
            <mxRectangle width="30" height="30" as="alternateBounds" />
          </mxGeometry>
        </mxCell>
        <mxCell id="zgshCLYlO7Ul1Uow3WSi-35" value="Age" style="shape=partialRectangle;connectable=0;fillColor=none;top=0;left=0;bottom=0;right=0;align=left;spacingLeft=6;overflow=hidden;whiteSpace=wrap;html=1;fontSize=20;labelBackgroundColor=none;labelBorderColor=none;textShadow=1;" parent="zgshCLYlO7Ul1Uow3WSi-33" vertex="1">
          <mxGeometry x="30" width="150" height="30" as="geometry">
            <mxRectangle width="150" height="30" as="alternateBounds" />
          </mxGeometry>
        </mxCell>
        <mxCell id="zgshCLYlO7Ul1Uow3WSi-36" value="" style="shape=tableRow;horizontal=0;startSize=0;swimlaneHead=0;swimlaneBody=0;fillColor=none;collapsible=0;dropTarget=0;points=[[0,0.5],[1,0.5]];portConstraint=eastwest;top=0;left=0;right=0;bottom=0;fontSize=20;labelBackgroundColor=none;labelBorderColor=none;textShadow=1;whiteSpace=wrap;html=1;" parent="zgshCLYlO7Ul1Uow3WSi-23" vertex="1">
          <mxGeometry y="144" width="180" height="30" as="geometry" />
        </mxCell>
        <mxCell id="zgshCLYlO7Ul1Uow3WSi-37" value="" style="shape=partialRectangle;connectable=0;fillColor=none;top=0;left=0;bottom=0;right=0;editable=1;overflow=hidden;whiteSpace=wrap;html=1;fontSize=20;labelBackgroundColor=none;labelBorderColor=none;textShadow=1;" parent="zgshCLYlO7Ul1Uow3WSi-36" vertex="1">
          <mxGeometry width="30" height="30" as="geometry">
            <mxRectangle width="30" height="30" as="alternateBounds" />
          </mxGeometry>
        </mxCell>
        <mxCell id="zgshCLYlO7Ul1Uow3WSi-38" value="Role" style="shape=partialRectangle;connectable=0;fillColor=none;top=0;left=0;bottom=0;right=0;align=left;spacingLeft=6;overflow=hidden;whiteSpace=wrap;html=1;fontSize=20;labelBackgroundColor=none;labelBorderColor=none;textShadow=1;" parent="zgshCLYlO7Ul1Uow3WSi-36" vertex="1">
          <mxGeometry x="30" width="150" height="30" as="geometry">
            <mxRectangle width="150" height="30" as="alternateBounds" />
          </mxGeometry>
        </mxCell>
        <mxCell id="zgshCLYlO7Ul1Uow3WSi-39" value="" style="shape=tableRow;horizontal=0;startSize=0;swimlaneHead=0;swimlaneBody=0;fillColor=none;collapsible=0;dropTarget=0;points=[[0,0.5],[1,0.5]];portConstraint=eastwest;top=0;left=0;right=0;bottom=0;fontSize=20;labelBackgroundColor=none;labelBorderColor=none;textShadow=1;whiteSpace=wrap;html=1;" parent="zgshCLYlO7Ul1Uow3WSi-23" vertex="1">
          <mxGeometry y="174" width="180" height="34" as="geometry" />
        </mxCell>
        <mxCell id="zgshCLYlO7Ul1Uow3WSi-40" value="" style="shape=partialRectangle;connectable=0;fillColor=none;top=0;left=0;bottom=0;right=0;editable=1;overflow=hidden;whiteSpace=wrap;html=1;fontSize=20;labelBackgroundColor=none;labelBorderColor=none;textShadow=1;" parent="zgshCLYlO7Ul1Uow3WSi-39" vertex="1">
          <mxGeometry width="30" height="34" as="geometry">
            <mxRectangle width="30" height="34" as="alternateBounds" />
          </mxGeometry>
        </mxCell>
        <mxCell id="zgshCLYlO7Ul1Uow3WSi-41" value="ContactNumber" style="shape=partialRectangle;connectable=0;fillColor=none;top=0;left=0;bottom=0;right=0;align=left;spacingLeft=6;overflow=hidden;whiteSpace=wrap;html=1;fontSize=20;labelBackgroundColor=none;labelBorderColor=none;textShadow=1;" parent="zgshCLYlO7Ul1Uow3WSi-39" vertex="1">
          <mxGeometry x="30" width="150" height="34" as="geometry">
            <mxRectangle width="150" height="34" as="alternateBounds" />
          </mxGeometry>
        </mxCell>
        <mxCell id="zgshCLYlO7Ul1Uow3WSi-42" value="" style="shape=tableRow;horizontal=0;startSize=0;swimlaneHead=0;swimlaneBody=0;fillColor=none;collapsible=0;dropTarget=0;points=[[0,0.5],[1,0.5]];portConstraint=eastwest;top=0;left=0;right=0;bottom=0;fontSize=20;labelBackgroundColor=none;labelBorderColor=none;textShadow=1;whiteSpace=wrap;html=1;" parent="zgshCLYlO7Ul1Uow3WSi-23" vertex="1">
          <mxGeometry y="208" width="180" height="30" as="geometry" />
        </mxCell>
        <mxCell id="zgshCLYlO7Ul1Uow3WSi-43" value="FK" style="shape=partialRectangle;connectable=0;fillColor=none;top=0;left=0;bottom=0;right=0;editable=1;overflow=hidden;whiteSpace=wrap;html=1;fontSize=20;labelBackgroundColor=none;labelBorderColor=none;textShadow=1;" parent="zgshCLYlO7Ul1Uow3WSi-42" vertex="1">
          <mxGeometry width="30" height="30" as="geometry">
            <mxRectangle width="30" height="30" as="alternateBounds" />
          </mxGeometry>
        </mxCell>
        <mxCell id="zgshCLYlO7Ul1Uow3WSi-44" value="ShopID" style="shape=partialRectangle;connectable=0;fillColor=none;top=0;left=0;bottom=0;right=0;align=left;spacingLeft=6;overflow=hidden;whiteSpace=wrap;html=1;fontSize=20;labelBackgroundColor=none;labelBorderColor=none;textShadow=1;" parent="zgshCLYlO7Ul1Uow3WSi-42" vertex="1">
          <mxGeometry x="30" width="150" height="30" as="geometry">
            <mxRectangle width="150" height="30" as="alternateBounds" />
          </mxGeometry>
        </mxCell>
        <mxCell id="zgshCLYlO7Ul1Uow3WSi-45" value="MallEmployees" style="shape=table;startSize=30;container=1;collapsible=1;childLayout=tableLayout;fixedRows=1;rowLines=0;fontStyle=1;align=center;resizeLast=1;html=1;fontSize=20;labelBackgroundColor=none;labelBorderColor=none;textShadow=1;whiteSpace=wrap;" parent="1" vertex="1">
          <mxGeometry x="-329" y="582" width="180" height="212.00008877840855" as="geometry" />
        </mxCell>
        <mxCell id="zgshCLYlO7Ul1Uow3WSi-46" value="" style="shape=tableRow;horizontal=0;startSize=0;swimlaneHead=0;swimlaneBody=0;fillColor=none;collapsible=0;dropTarget=0;points=[[0,0.5],[1,0.5]];portConstraint=eastwest;top=0;left=0;right=0;bottom=1;fontSize=20;labelBackgroundColor=none;labelBorderColor=none;textShadow=1;whiteSpace=wrap;html=1;" parent="zgshCLYlO7Ul1Uow3WSi-45" vertex="1">
          <mxGeometry y="30" width="180" height="34" as="geometry" />
        </mxCell>
        <mxCell id="zgshCLYlO7Ul1Uow3WSi-47" value="PK" style="shape=partialRectangle;connectable=0;fillColor=none;top=0;left=0;bottom=0;right=0;fontStyle=1;overflow=hidden;whiteSpace=wrap;html=1;fontSize=20;labelBackgroundColor=none;labelBorderColor=none;textShadow=1;" parent="zgshCLYlO7Ul1Uow3WSi-46" vertex="1">
          <mxGeometry width="30" height="34" as="geometry">
            <mxRectangle width="30" height="34" as="alternateBounds" />
          </mxGeometry>
        </mxCell>
        <mxCell id="zgshCLYlO7Ul1Uow3WSi-48" value="EmployeeID" style="shape=partialRectangle;connectable=0;fillColor=none;top=0;left=0;bottom=0;right=0;align=left;spacingLeft=6;fontStyle=5;overflow=hidden;whiteSpace=wrap;html=1;fontSize=20;labelBackgroundColor=none;labelBorderColor=none;textShadow=1;" parent="zgshCLYlO7Ul1Uow3WSi-46" vertex="1">
          <mxGeometry x="30" width="150" height="34" as="geometry">
            <mxRectangle width="150" height="34" as="alternateBounds" />
          </mxGeometry>
        </mxCell>
        <mxCell id="zgshCLYlO7Ul1Uow3WSi-49" value="" style="shape=tableRow;horizontal=0;startSize=0;swimlaneHead=0;swimlaneBody=0;fillColor=none;collapsible=0;dropTarget=0;points=[[0,0.5],[1,0.5]];portConstraint=eastwest;top=0;left=0;right=0;bottom=0;fontSize=20;labelBackgroundColor=none;labelBorderColor=none;textShadow=1;whiteSpace=wrap;html=1;" parent="zgshCLYlO7Ul1Uow3WSi-45" vertex="1">
          <mxGeometry y="64" width="180" height="30" as="geometry" />
        </mxCell>
        <mxCell id="zgshCLYlO7Ul1Uow3WSi-50" value="" style="shape=partialRectangle;connectable=0;fillColor=none;top=0;left=0;bottom=0;right=0;editable=1;overflow=hidden;whiteSpace=wrap;html=1;fontSize=20;labelBackgroundColor=none;labelBorderColor=none;textShadow=1;" parent="zgshCLYlO7Ul1Uow3WSi-49" vertex="1">
          <mxGeometry width="30" height="30" as="geometry">
            <mxRectangle width="30" height="30" as="alternateBounds" />
          </mxGeometry>
        </mxCell>
        <mxCell id="zgshCLYlO7Ul1Uow3WSi-51" value="" style="shape=partialRectangle;connectable=0;fillColor=none;top=0;left=0;bottom=0;right=0;align=left;spacingLeft=6;overflow=hidden;whiteSpace=wrap;html=1;fontSize=20;labelBackgroundColor=none;labelBorderColor=none;textShadow=1;" parent="zgshCLYlO7Ul1Uow3WSi-49" vertex="1">
          <mxGeometry x="30" width="150" height="30" as="geometry">
            <mxRectangle width="150" height="30" as="alternateBounds" />
          </mxGeometry>
        </mxCell>
        <mxCell id="zgshCLYlO7Ul1Uow3WSi-52" value="" style="shape=tableRow;horizontal=0;startSize=0;swimlaneHead=0;swimlaneBody=0;fillColor=none;collapsible=0;dropTarget=0;points=[[0,0.5],[1,0.5]];portConstraint=eastwest;top=0;left=0;right=0;bottom=0;fontSize=20;labelBackgroundColor=none;labelBorderColor=none;textShadow=1;whiteSpace=wrap;html=1;" parent="zgshCLYlO7Ul1Uow3WSi-45" vertex="1">
          <mxGeometry y="94" width="180" height="30" as="geometry" />
        </mxCell>
        <mxCell id="zgshCLYlO7Ul1Uow3WSi-53" value="" style="shape=partialRectangle;connectable=0;fillColor=none;top=0;left=0;bottom=0;right=0;editable=1;overflow=hidden;whiteSpace=wrap;html=1;fontSize=20;labelBackgroundColor=none;labelBorderColor=none;textShadow=1;" parent="zgshCLYlO7Ul1Uow3WSi-52" vertex="1">
          <mxGeometry width="30" height="30" as="geometry">
            <mxRectangle width="30" height="30" as="alternateBounds" />
          </mxGeometry>
        </mxCell>
        <mxCell id="zgshCLYlO7Ul1Uow3WSi-54" value="" style="shape=partialRectangle;connectable=0;fillColor=none;top=0;left=0;bottom=0;right=0;align=left;spacingLeft=6;overflow=hidden;whiteSpace=wrap;html=1;fontSize=20;labelBackgroundColor=none;labelBorderColor=none;textShadow=1;" parent="zgshCLYlO7Ul1Uow3WSi-52" vertex="1">
          <mxGeometry x="30" width="150" height="30" as="geometry">
            <mxRectangle width="150" height="30" as="alternateBounds" />
          </mxGeometry>
        </mxCell>
        <mxCell id="zgshCLYlO7Ul1Uow3WSi-55" value="" style="shape=tableRow;horizontal=0;startSize=0;swimlaneHead=0;swimlaneBody=0;fillColor=none;collapsible=0;dropTarget=0;points=[[0,0.5],[1,0.5]];portConstraint=eastwest;top=0;left=0;right=0;bottom=0;fontSize=20;labelBackgroundColor=none;labelBorderColor=none;textShadow=1;whiteSpace=wrap;html=1;" parent="zgshCLYlO7Ul1Uow3WSi-45" vertex="1">
          <mxGeometry y="124" width="180" height="28" as="geometry" />
        </mxCell>
        <mxCell id="zgshCLYlO7Ul1Uow3WSi-56" value="" style="shape=partialRectangle;connectable=0;fillColor=none;top=0;left=0;bottom=0;right=0;editable=1;overflow=hidden;whiteSpace=wrap;html=1;fontSize=20;labelBackgroundColor=none;labelBorderColor=none;textShadow=1;" parent="zgshCLYlO7Ul1Uow3WSi-55" vertex="1">
          <mxGeometry width="30" height="28" as="geometry">
            <mxRectangle width="30" height="28" as="alternateBounds" />
          </mxGeometry>
        </mxCell>
        <mxCell id="zgshCLYlO7Ul1Uow3WSi-57" value="" style="shape=partialRectangle;connectable=0;fillColor=none;top=0;left=0;bottom=0;right=0;align=left;spacingLeft=6;overflow=hidden;whiteSpace=wrap;html=1;fontSize=20;labelBackgroundColor=none;labelBorderColor=none;textShadow=1;" parent="zgshCLYlO7Ul1Uow3WSi-55" vertex="1">
          <mxGeometry x="30" width="150" height="28" as="geometry">
            <mxRectangle width="150" height="28" as="alternateBounds" />
          </mxGeometry>
        </mxCell>
        <mxCell id="zgshCLYlO7Ul1Uow3WSi-58" value="" style="shape=tableRow;horizontal=0;startSize=0;swimlaneHead=0;swimlaneBody=0;fillColor=none;collapsible=0;dropTarget=0;points=[[0,0.5],[1,0.5]];portConstraint=eastwest;top=0;left=0;right=0;bottom=0;fontSize=20;labelBackgroundColor=none;labelBorderColor=none;textShadow=1;whiteSpace=wrap;html=1;" parent="zgshCLYlO7Ul1Uow3WSi-45" vertex="1">
          <mxGeometry y="152" width="180" height="30" as="geometry" />
        </mxCell>
        <mxCell id="zgshCLYlO7Ul1Uow3WSi-59" value="" style="shape=partialRectangle;connectable=0;fillColor=none;top=0;left=0;bottom=0;right=0;editable=1;overflow=hidden;whiteSpace=wrap;html=1;fontSize=20;labelBackgroundColor=none;labelBorderColor=none;textShadow=1;" parent="zgshCLYlO7Ul1Uow3WSi-58" vertex="1">
          <mxGeometry width="30" height="30" as="geometry">
            <mxRectangle width="30" height="30" as="alternateBounds" />
          </mxGeometry>
        </mxCell>
        <mxCell id="zgshCLYlO7Ul1Uow3WSi-60" value="" style="shape=partialRectangle;connectable=0;fillColor=none;top=0;left=0;bottom=0;right=0;align=left;spacingLeft=6;overflow=hidden;whiteSpace=wrap;html=1;fontSize=20;labelBackgroundColor=none;labelBorderColor=none;textShadow=1;" parent="zgshCLYlO7Ul1Uow3WSi-58" vertex="1">
          <mxGeometry x="30" width="150" height="30" as="geometry">
            <mxRectangle width="150" height="30" as="alternateBounds" />
          </mxGeometry>
        </mxCell>
        <mxCell id="zgshCLYlO7Ul1Uow3WSi-61" value="" style="shape=tableRow;horizontal=0;startSize=0;swimlaneHead=0;swimlaneBody=0;fillColor=none;collapsible=0;dropTarget=0;points=[[0,0.5],[1,0.5]];portConstraint=eastwest;top=0;left=0;right=0;bottom=0;fontSize=20;labelBackgroundColor=none;labelBorderColor=none;textShadow=1;whiteSpace=wrap;html=1;" parent="zgshCLYlO7Ul1Uow3WSi-45" vertex="1">
          <mxGeometry y="182" width="180" height="30" as="geometry" />
        </mxCell>
        <mxCell id="zgshCLYlO7Ul1Uow3WSi-62" value="" style="shape=partialRectangle;connectable=0;fillColor=none;top=0;left=0;bottom=0;right=0;editable=1;overflow=hidden;whiteSpace=wrap;html=1;fontSize=20;labelBackgroundColor=none;labelBorderColor=none;textShadow=1;" parent="zgshCLYlO7Ul1Uow3WSi-61" vertex="1">
          <mxGeometry width="30" height="30" as="geometry">
            <mxRectangle width="30" height="30" as="alternateBounds" />
          </mxGeometry>
        </mxCell>
        <mxCell id="zgshCLYlO7Ul1Uow3WSi-63" value="" style="shape=partialRectangle;connectable=0;fillColor=none;top=0;left=0;bottom=0;right=0;align=left;spacingLeft=6;overflow=hidden;whiteSpace=wrap;html=1;fontSize=20;labelBackgroundColor=none;labelBorderColor=none;textShadow=1;" parent="zgshCLYlO7Ul1Uow3WSi-61" vertex="1">
          <mxGeometry x="30" width="150" height="30" as="geometry">
            <mxRectangle width="150" height="30" as="alternateBounds" />
          </mxGeometry>
        </mxCell>
        <mxCell id="zgshCLYlO7Ul1Uow3WSi-86" value="Customers" style="shape=table;startSize=30;container=1;collapsible=1;childLayout=tableLayout;fixedRows=1;rowLines=0;fontStyle=1;align=center;resizeLast=1;html=1;fontSize=20;labelBackgroundColor=none;labelBorderColor=none;textShadow=1;whiteSpace=wrap;" parent="1" vertex="1">
          <mxGeometry x="650" y="82.5" width="180" height="279" as="geometry" />
        </mxCell>
        <mxCell id="zgshCLYlO7Ul1Uow3WSi-87" value="" style="shape=tableRow;horizontal=0;startSize=0;swimlaneHead=0;swimlaneBody=0;fillColor=none;collapsible=0;dropTarget=0;points=[[0,0.5],[1,0.5]];portConstraint=eastwest;top=0;left=0;right=0;bottom=1;fontSize=20;labelBackgroundColor=none;labelBorderColor=none;textShadow=1;whiteSpace=wrap;html=1;" parent="zgshCLYlO7Ul1Uow3WSi-86" vertex="1">
          <mxGeometry y="30" width="180" height="30" as="geometry" />
        </mxCell>
        <mxCell id="zgshCLYlO7Ul1Uow3WSi-88" value="PK" style="shape=partialRectangle;connectable=0;fillColor=none;top=0;left=0;bottom=0;right=0;fontStyle=1;overflow=hidden;whiteSpace=wrap;html=1;fontSize=20;labelBackgroundColor=none;labelBorderColor=none;textShadow=1;" parent="zgshCLYlO7Ul1Uow3WSi-87" vertex="1">
          <mxGeometry width="30" height="30" as="geometry">
            <mxRectangle width="30" height="30" as="alternateBounds" />
          </mxGeometry>
        </mxCell>
        <mxCell id="zgshCLYlO7Ul1Uow3WSi-89" value="CustomerID" style="shape=partialRectangle;connectable=0;fillColor=none;top=0;left=0;bottom=0;right=0;align=left;spacingLeft=6;fontStyle=5;overflow=hidden;whiteSpace=wrap;html=1;fontSize=20;labelBackgroundColor=none;labelBorderColor=none;textShadow=1;" parent="zgshCLYlO7Ul1Uow3WSi-87" vertex="1">
          <mxGeometry x="30" width="150" height="30" as="geometry">
            <mxRectangle width="150" height="30" as="alternateBounds" />
          </mxGeometry>
        </mxCell>
        <mxCell id="zgshCLYlO7Ul1Uow3WSi-90" value="" style="shape=tableRow;horizontal=0;startSize=0;swimlaneHead=0;swimlaneBody=0;fillColor=none;collapsible=0;dropTarget=0;points=[[0,0.5],[1,0.5]];portConstraint=eastwest;top=0;left=0;right=0;bottom=0;fontSize=20;labelBackgroundColor=none;labelBorderColor=none;textShadow=1;whiteSpace=wrap;html=1;" parent="zgshCLYlO7Ul1Uow3WSi-86" vertex="1">
          <mxGeometry y="60" width="180" height="30" as="geometry" />
        </mxCell>
        <mxCell id="zgshCLYlO7Ul1Uow3WSi-91" value="" style="shape=partialRectangle;connectable=0;fillColor=none;top=0;left=0;bottom=0;right=0;editable=1;overflow=hidden;whiteSpace=wrap;html=1;fontSize=20;labelBackgroundColor=none;labelBorderColor=none;textShadow=1;" parent="zgshCLYlO7Ul1Uow3WSi-90" vertex="1">
          <mxGeometry width="30" height="30" as="geometry">
            <mxRectangle width="30" height="30" as="alternateBounds" />
          </mxGeometry>
        </mxCell>
        <mxCell id="zgshCLYlO7Ul1Uow3WSi-92" value="CustomerType" style="shape=partialRectangle;connectable=0;fillColor=none;top=0;left=0;bottom=0;right=0;align=left;spacingLeft=6;overflow=hidden;whiteSpace=wrap;html=1;fontSize=20;labelBackgroundColor=none;labelBorderColor=none;textShadow=1;" parent="zgshCLYlO7Ul1Uow3WSi-90" vertex="1">
          <mxGeometry x="30" width="150" height="30" as="geometry">
            <mxRectangle width="150" height="30" as="alternateBounds" />
          </mxGeometry>
        </mxCell>
        <mxCell id="zgshCLYlO7Ul1Uow3WSi-93" value="" style="shape=tableRow;horizontal=0;startSize=0;swimlaneHead=0;swimlaneBody=0;fillColor=none;collapsible=0;dropTarget=0;points=[[0,0.5],[1,0.5]];portConstraint=eastwest;top=0;left=0;right=0;bottom=0;fontSize=20;labelBackgroundColor=none;labelBorderColor=none;textShadow=1;whiteSpace=wrap;html=1;" parent="zgshCLYlO7Ul1Uow3WSi-86" vertex="1">
          <mxGeometry y="90" width="180" height="30" as="geometry" />
        </mxCell>
        <mxCell id="zgshCLYlO7Ul1Uow3WSi-94" value="" style="shape=partialRectangle;connectable=0;fillColor=none;top=0;left=0;bottom=0;right=0;editable=1;overflow=hidden;whiteSpace=wrap;html=1;fontSize=20;labelBackgroundColor=none;labelBorderColor=none;textShadow=1;" parent="zgshCLYlO7Ul1Uow3WSi-93" vertex="1">
          <mxGeometry width="30" height="30" as="geometry">
            <mxRectangle width="30" height="30" as="alternateBounds" />
          </mxGeometry>
        </mxCell>
        <mxCell id="zgshCLYlO7Ul1Uow3WSi-95" value="Name" style="shape=partialRectangle;connectable=0;fillColor=none;top=0;left=0;bottom=0;right=0;align=left;spacingLeft=6;overflow=hidden;whiteSpace=wrap;html=1;fontSize=20;labelBackgroundColor=none;labelBorderColor=none;textShadow=1;" parent="zgshCLYlO7Ul1Uow3WSi-93" vertex="1">
          <mxGeometry x="30" width="150" height="30" as="geometry">
            <mxRectangle width="150" height="30" as="alternateBounds" />
          </mxGeometry>
        </mxCell>
        <mxCell id="zgshCLYlO7Ul1Uow3WSi-96" value="" style="shape=tableRow;horizontal=0;startSize=0;swimlaneHead=0;swimlaneBody=0;fillColor=none;collapsible=0;dropTarget=0;points=[[0,0.5],[1,0.5]];portConstraint=eastwest;top=0;left=0;right=0;bottom=0;fontSize=20;labelBackgroundColor=none;labelBorderColor=none;textShadow=1;whiteSpace=wrap;html=1;" parent="zgshCLYlO7Ul1Uow3WSi-86" vertex="1">
          <mxGeometry y="120" width="180" height="30" as="geometry" />
        </mxCell>
        <mxCell id="zgshCLYlO7Ul1Uow3WSi-97" value="" style="shape=partialRectangle;connectable=0;fillColor=none;top=0;left=0;bottom=0;right=0;editable=1;overflow=hidden;whiteSpace=wrap;html=1;fontSize=20;labelBackgroundColor=none;labelBorderColor=none;textShadow=1;" parent="zgshCLYlO7Ul1Uow3WSi-96" vertex="1">
          <mxGeometry width="30" height="30" as="geometry">
            <mxRectangle width="30" height="30" as="alternateBounds" />
          </mxGeometry>
        </mxCell>
        <mxCell id="zgshCLYlO7Ul1Uow3WSi-98" value="Age" style="shape=partialRectangle;connectable=0;fillColor=none;top=0;left=0;bottom=0;right=0;align=left;spacingLeft=6;overflow=hidden;whiteSpace=wrap;html=1;fontSize=20;labelBackgroundColor=none;labelBorderColor=none;textShadow=1;" parent="zgshCLYlO7Ul1Uow3WSi-96" vertex="1">
          <mxGeometry x="30" width="150" height="30" as="geometry">
            <mxRectangle width="150" height="30" as="alternateBounds" />
          </mxGeometry>
        </mxCell>
        <mxCell id="zgshCLYlO7Ul1Uow3WSi-99" value="" style="shape=tableRow;horizontal=0;startSize=0;swimlaneHead=0;swimlaneBody=0;fillColor=none;collapsible=0;dropTarget=0;points=[[0,0.5],[1,0.5]];portConstraint=eastwest;top=0;left=0;right=0;bottom=0;fontSize=20;labelBackgroundColor=none;labelBorderColor=none;textShadow=1;whiteSpace=wrap;html=1;" parent="zgshCLYlO7Ul1Uow3WSi-86" vertex="1">
          <mxGeometry y="150" width="180" height="25" as="geometry" />
        </mxCell>
        <mxCell id="zgshCLYlO7Ul1Uow3WSi-100" value="" style="shape=partialRectangle;connectable=0;fillColor=none;top=0;left=0;bottom=0;right=0;editable=1;overflow=hidden;whiteSpace=wrap;html=1;fontSize=20;labelBackgroundColor=none;labelBorderColor=none;textShadow=1;" parent="zgshCLYlO7Ul1Uow3WSi-99" vertex="1">
          <mxGeometry width="30" height="25" as="geometry">
            <mxRectangle width="30" height="25" as="alternateBounds" />
          </mxGeometry>
        </mxCell>
        <mxCell id="zgshCLYlO7Ul1Uow3WSi-101" value="EmailAddress" style="shape=partialRectangle;connectable=0;fillColor=none;top=0;left=0;bottom=0;right=0;align=left;spacingLeft=6;overflow=hidden;whiteSpace=wrap;html=1;fontSize=20;labelBackgroundColor=none;labelBorderColor=none;textShadow=1;" parent="zgshCLYlO7Ul1Uow3WSi-99" vertex="1">
          <mxGeometry x="30" width="150" height="25" as="geometry">
            <mxRectangle width="150" height="25" as="alternateBounds" />
          </mxGeometry>
        </mxCell>
        <mxCell id="zgshCLYlO7Ul1Uow3WSi-291" value="" style="shape=tableRow;horizontal=0;startSize=0;swimlaneHead=0;swimlaneBody=0;fillColor=none;collapsible=0;dropTarget=0;points=[[0,0.5],[1,0.5]];portConstraint=eastwest;top=0;left=0;right=0;bottom=0;fontSize=20;labelBackgroundColor=none;labelBorderColor=none;textShadow=1;whiteSpace=wrap;html=1;" parent="zgshCLYlO7Ul1Uow3WSi-86" vertex="1">
          <mxGeometry y="175" width="180" height="30" as="geometry" />
        </mxCell>
        <mxCell id="zgshCLYlO7Ul1Uow3WSi-292" value="" style="shape=partialRectangle;connectable=0;fillColor=none;top=0;left=0;bottom=0;right=0;editable=1;overflow=hidden;whiteSpace=wrap;html=1;fontSize=20;labelBackgroundColor=none;labelBorderColor=none;textShadow=1;" parent="zgshCLYlO7Ul1Uow3WSi-291" vertex="1">
          <mxGeometry width="30" height="30" as="geometry">
            <mxRectangle width="30" height="30" as="alternateBounds" />
          </mxGeometry>
        </mxCell>
        <mxCell id="zgshCLYlO7Ul1Uow3WSi-293" value="Transaction" style="shape=partialRectangle;connectable=0;fillColor=none;top=0;left=0;bottom=0;right=0;align=left;spacingLeft=6;overflow=hidden;whiteSpace=wrap;html=1;fontSize=20;labelBackgroundColor=none;labelBorderColor=none;textShadow=1;" parent="zgshCLYlO7Ul1Uow3WSi-291" vertex="1">
          <mxGeometry x="30" width="150" height="30" as="geometry">
            <mxRectangle width="150" height="30" as="alternateBounds" />
          </mxGeometry>
        </mxCell>
        <mxCell id="zgshCLYlO7Ul1Uow3WSi-294" value="" style="shape=tableRow;horizontal=0;startSize=0;swimlaneHead=0;swimlaneBody=0;fillColor=none;collapsible=0;dropTarget=0;points=[[0,0.5],[1,0.5]];portConstraint=eastwest;top=0;left=0;right=0;bottom=0;fontSize=20;labelBackgroundColor=none;labelBorderColor=none;textShadow=1;whiteSpace=wrap;html=1;" parent="zgshCLYlO7Ul1Uow3WSi-86" vertex="1">
          <mxGeometry y="205" width="180" height="33" as="geometry" />
        </mxCell>
        <mxCell id="zgshCLYlO7Ul1Uow3WSi-295" value="FK" style="shape=partialRectangle;connectable=0;fillColor=none;top=0;left=0;bottom=0;right=0;editable=1;overflow=hidden;whiteSpace=wrap;html=1;fontSize=20;labelBackgroundColor=none;labelBorderColor=none;textShadow=1;" parent="zgshCLYlO7Ul1Uow3WSi-294" vertex="1">
          <mxGeometry width="30" height="33" as="geometry">
            <mxRectangle width="30" height="33" as="alternateBounds" />
          </mxGeometry>
        </mxCell>
        <mxCell id="zgshCLYlO7Ul1Uow3WSi-296" value="ProductID" style="shape=partialRectangle;connectable=0;fillColor=none;top=0;left=0;bottom=0;right=0;align=left;spacingLeft=6;overflow=hidden;whiteSpace=wrap;html=1;fontSize=20;labelBackgroundColor=none;labelBorderColor=none;textShadow=1;" parent="zgshCLYlO7Ul1Uow3WSi-294" vertex="1">
          <mxGeometry x="30" width="150" height="33" as="geometry">
            <mxRectangle width="150" height="33" as="alternateBounds" />
          </mxGeometry>
        </mxCell>
        <mxCell id="zgshCLYlO7Ul1Uow3WSi-297" value="" style="shape=tableRow;horizontal=0;startSize=0;swimlaneHead=0;swimlaneBody=0;fillColor=none;collapsible=0;dropTarget=0;points=[[0,0.5],[1,0.5]];portConstraint=eastwest;top=0;left=0;right=0;bottom=0;fontSize=20;labelBackgroundColor=none;labelBorderColor=none;textShadow=1;whiteSpace=wrap;html=1;" parent="zgshCLYlO7Ul1Uow3WSi-86" vertex="1">
          <mxGeometry y="238" width="180" height="40" as="geometry" />
        </mxCell>
        <mxCell id="zgshCLYlO7Ul1Uow3WSi-298" value="FK" style="shape=partialRectangle;connectable=0;fillColor=none;top=0;left=0;bottom=0;right=0;editable=1;overflow=hidden;whiteSpace=wrap;html=1;fontSize=20;labelBackgroundColor=none;labelBorderColor=none;textShadow=1;" parent="zgshCLYlO7Ul1Uow3WSi-297" vertex="1">
          <mxGeometry width="30" height="40" as="geometry">
            <mxRectangle width="30" height="40" as="alternateBounds" />
          </mxGeometry>
        </mxCell>
        <mxCell id="zgshCLYlO7Ul1Uow3WSi-299" value="ShopID" style="shape=partialRectangle;connectable=0;fillColor=none;top=0;left=0;bottom=0;right=0;align=left;spacingLeft=6;overflow=hidden;whiteSpace=wrap;html=1;fontSize=20;labelBackgroundColor=none;labelBorderColor=none;textShadow=1;" parent="zgshCLYlO7Ul1Uow3WSi-297" vertex="1">
          <mxGeometry x="30" width="150" height="40" as="geometry">
            <mxRectangle width="150" height="40" as="alternateBounds" />
          </mxGeometry>
        </mxCell>
        <mxCell id="zgshCLYlO7Ul1Uow3WSi-105" value="Leases" style="shape=table;startSize=30;container=1;collapsible=1;childLayout=tableLayout;fixedRows=1;rowLines=0;fontStyle=1;align=center;resizeLast=1;html=1;fontSize=20;labelBackgroundColor=none;labelBorderColor=none;textShadow=1;whiteSpace=wrap;" parent="1" vertex="1">
          <mxGeometry x="440" y="400" width="220" height="350" as="geometry" />
        </mxCell>
        <mxCell id="zgshCLYlO7Ul1Uow3WSi-106" value="" style="shape=tableRow;horizontal=0;startSize=0;swimlaneHead=0;swimlaneBody=0;fillColor=none;collapsible=0;dropTarget=0;points=[[0,0.5],[1,0.5]];portConstraint=eastwest;top=0;left=0;right=0;bottom=1;fontSize=20;labelBackgroundColor=none;labelBorderColor=none;textShadow=1;whiteSpace=wrap;html=1;" parent="zgshCLYlO7Ul1Uow3WSi-105" vertex="1">
          <mxGeometry y="30" width="220" height="30" as="geometry" />
        </mxCell>
        <mxCell id="zgshCLYlO7Ul1Uow3WSi-107" value="PK" style="shape=partialRectangle;connectable=0;fillColor=none;top=0;left=0;bottom=0;right=0;fontStyle=1;overflow=hidden;whiteSpace=wrap;html=1;fontSize=20;labelBackgroundColor=none;labelBorderColor=none;textShadow=1;" parent="zgshCLYlO7Ul1Uow3WSi-106" vertex="1">
          <mxGeometry width="30" height="30" as="geometry">
            <mxRectangle width="30" height="30" as="alternateBounds" />
          </mxGeometry>
        </mxCell>
        <mxCell id="zgshCLYlO7Ul1Uow3WSi-108" value="LeasesID" style="shape=partialRectangle;connectable=0;fillColor=none;top=0;left=0;bottom=0;right=0;align=left;spacingLeft=6;fontStyle=5;overflow=hidden;whiteSpace=wrap;html=1;fontSize=20;labelBackgroundColor=none;labelBorderColor=none;textShadow=1;" parent="zgshCLYlO7Ul1Uow3WSi-106" vertex="1">
          <mxGeometry x="30" width="190" height="30" as="geometry">
            <mxRectangle width="190" height="30" as="alternateBounds" />
          </mxGeometry>
        </mxCell>
        <mxCell id="zgshCLYlO7Ul1Uow3WSi-109" value="" style="shape=tableRow;horizontal=0;startSize=0;swimlaneHead=0;swimlaneBody=0;fillColor=none;collapsible=0;dropTarget=0;points=[[0,0.5],[1,0.5]];portConstraint=eastwest;top=0;left=0;right=0;bottom=0;fontSize=20;labelBackgroundColor=none;labelBorderColor=none;textShadow=1;whiteSpace=wrap;html=1;" parent="zgshCLYlO7Ul1Uow3WSi-105" vertex="1">
          <mxGeometry y="60" width="220" height="30" as="geometry" />
        </mxCell>
        <mxCell id="zgshCLYlO7Ul1Uow3WSi-110" value="FK" style="shape=partialRectangle;connectable=0;fillColor=none;top=0;left=0;bottom=0;right=0;editable=1;overflow=hidden;whiteSpace=wrap;html=1;fontSize=20;labelBackgroundColor=none;labelBorderColor=none;textShadow=1;" parent="zgshCLYlO7Ul1Uow3WSi-109" vertex="1">
          <mxGeometry width="30" height="30" as="geometry">
            <mxRectangle width="30" height="30" as="alternateBounds" />
          </mxGeometry>
        </mxCell>
        <mxCell id="zgshCLYlO7Ul1Uow3WSi-111" value="ShopID" style="shape=partialRectangle;connectable=0;fillColor=none;top=0;left=0;bottom=0;right=0;align=left;spacingLeft=6;overflow=hidden;whiteSpace=wrap;html=1;fontSize=20;labelBackgroundColor=none;labelBorderColor=none;textShadow=1;" parent="zgshCLYlO7Ul1Uow3WSi-109" vertex="1">
          <mxGeometry x="30" width="190" height="30" as="geometry">
            <mxRectangle width="190" height="30" as="alternateBounds" />
          </mxGeometry>
        </mxCell>
        <mxCell id="zgshCLYlO7Ul1Uow3WSi-112" value="" style="shape=tableRow;horizontal=0;startSize=0;swimlaneHead=0;swimlaneBody=0;fillColor=none;collapsible=0;dropTarget=0;points=[[0,0.5],[1,0.5]];portConstraint=eastwest;top=0;left=0;right=0;bottom=0;fontSize=20;labelBackgroundColor=none;labelBorderColor=none;textShadow=1;whiteSpace=wrap;html=1;" parent="zgshCLYlO7Ul1Uow3WSi-105" vertex="1">
          <mxGeometry y="90" width="220" height="30" as="geometry" />
        </mxCell>
        <mxCell id="zgshCLYlO7Ul1Uow3WSi-113" value="" style="shape=partialRectangle;connectable=0;fillColor=none;top=0;left=0;bottom=0;right=0;editable=1;overflow=hidden;whiteSpace=wrap;html=1;fontSize=20;labelBackgroundColor=none;labelBorderColor=none;textShadow=1;" parent="zgshCLYlO7Ul1Uow3WSi-112" vertex="1">
          <mxGeometry width="30" height="30" as="geometry">
            <mxRectangle width="30" height="30" as="alternateBounds" />
          </mxGeometry>
        </mxCell>
        <mxCell id="zgshCLYlO7Ul1Uow3WSi-114" value="LeaseDuration" style="shape=partialRectangle;connectable=0;fillColor=none;top=0;left=0;bottom=0;right=0;align=left;spacingLeft=6;overflow=hidden;whiteSpace=wrap;html=1;fontSize=20;labelBackgroundColor=none;labelBorderColor=none;textShadow=1;" parent="zgshCLYlO7Ul1Uow3WSi-112" vertex="1">
          <mxGeometry x="30" width="190" height="30" as="geometry">
            <mxRectangle width="190" height="30" as="alternateBounds" />
          </mxGeometry>
        </mxCell>
        <mxCell id="zgshCLYlO7Ul1Uow3WSi-115" value="" style="shape=tableRow;horizontal=0;startSize=0;swimlaneHead=0;swimlaneBody=0;fillColor=none;collapsible=0;dropTarget=0;points=[[0,0.5],[1,0.5]];portConstraint=eastwest;top=0;left=0;right=0;bottom=0;fontSize=20;labelBackgroundColor=none;labelBorderColor=none;textShadow=1;whiteSpace=wrap;html=1;" parent="zgshCLYlO7Ul1Uow3WSi-105" vertex="1">
          <mxGeometry y="120" width="220" height="30" as="geometry" />
        </mxCell>
        <mxCell id="zgshCLYlO7Ul1Uow3WSi-116" value="" style="shape=partialRectangle;connectable=0;fillColor=none;top=0;left=0;bottom=0;right=0;editable=1;overflow=hidden;whiteSpace=wrap;html=1;fontSize=20;labelBackgroundColor=none;labelBorderColor=none;textShadow=1;" parent="zgshCLYlO7Ul1Uow3WSi-115" vertex="1">
          <mxGeometry width="30" height="30" as="geometry">
            <mxRectangle width="30" height="30" as="alternateBounds" />
          </mxGeometry>
        </mxCell>
        <mxCell id="zgshCLYlO7Ul1Uow3WSi-117" value="LeaseOwner" style="shape=partialRectangle;connectable=0;fillColor=none;top=0;left=0;bottom=0;right=0;align=left;spacingLeft=6;overflow=hidden;whiteSpace=wrap;html=1;fontSize=20;labelBackgroundColor=none;labelBorderColor=none;textShadow=1;" parent="zgshCLYlO7Ul1Uow3WSi-115" vertex="1">
          <mxGeometry x="30" width="190" height="30" as="geometry">
            <mxRectangle width="190" height="30" as="alternateBounds" />
          </mxGeometry>
        </mxCell>
        <mxCell id="zgshCLYlO7Ul1Uow3WSi-118" value="" style="shape=tableRow;horizontal=0;startSize=0;swimlaneHead=0;swimlaneBody=0;fillColor=none;collapsible=0;dropTarget=0;points=[[0,0.5],[1,0.5]];portConstraint=eastwest;top=0;left=0;right=0;bottom=0;fontSize=20;labelBackgroundColor=none;labelBorderColor=none;textShadow=1;whiteSpace=wrap;html=1;" parent="zgshCLYlO7Ul1Uow3WSi-105" vertex="1">
          <mxGeometry y="150" width="220" height="30" as="geometry" />
        </mxCell>
        <mxCell id="zgshCLYlO7Ul1Uow3WSi-119" value="" style="shape=partialRectangle;connectable=0;fillColor=none;top=0;left=0;bottom=0;right=0;editable=1;overflow=hidden;whiteSpace=wrap;html=1;fontSize=20;labelBackgroundColor=none;labelBorderColor=none;textShadow=1;" parent="zgshCLYlO7Ul1Uow3WSi-118" vertex="1">
          <mxGeometry width="30" height="30" as="geometry">
            <mxRectangle width="30" height="30" as="alternateBounds" />
          </mxGeometry>
        </mxCell>
        <mxCell id="zgshCLYlO7Ul1Uow3WSi-120" value="StartDate" style="shape=partialRectangle;connectable=0;fillColor=none;top=0;left=0;bottom=0;right=0;align=left;spacingLeft=6;overflow=hidden;whiteSpace=wrap;html=1;fontSize=20;labelBackgroundColor=none;labelBorderColor=none;textShadow=1;" parent="zgshCLYlO7Ul1Uow3WSi-118" vertex="1">
          <mxGeometry x="30" width="190" height="30" as="geometry">
            <mxRectangle width="190" height="30" as="alternateBounds" />
          </mxGeometry>
        </mxCell>
        <mxCell id="zgshCLYlO7Ul1Uow3WSi-121" value="" style="shape=tableRow;horizontal=0;startSize=0;swimlaneHead=0;swimlaneBody=0;fillColor=none;collapsible=0;dropTarget=0;points=[[0,0.5],[1,0.5]];portConstraint=eastwest;top=0;left=0;right=0;bottom=0;fontSize=20;labelBackgroundColor=none;labelBorderColor=none;textShadow=1;whiteSpace=wrap;html=1;" parent="zgshCLYlO7Ul1Uow3WSi-105" vertex="1">
          <mxGeometry y="180" width="220" height="25" as="geometry" />
        </mxCell>
        <mxCell id="zgshCLYlO7Ul1Uow3WSi-122" value="" style="shape=partialRectangle;connectable=0;fillColor=none;top=0;left=0;bottom=0;right=0;editable=1;overflow=hidden;whiteSpace=wrap;html=1;fontSize=20;labelBackgroundColor=none;labelBorderColor=none;textShadow=1;" parent="zgshCLYlO7Ul1Uow3WSi-121" vertex="1">
          <mxGeometry width="30" height="25" as="geometry">
            <mxRectangle width="30" height="25" as="alternateBounds" />
          </mxGeometry>
        </mxCell>
        <mxCell id="zgshCLYlO7Ul1Uow3WSi-123" value="EndDate" style="shape=partialRectangle;connectable=0;fillColor=none;top=0;left=0;bottom=0;right=0;align=left;spacingLeft=6;overflow=hidden;whiteSpace=wrap;html=1;fontSize=20;labelBackgroundColor=none;labelBorderColor=none;textShadow=1;" parent="zgshCLYlO7Ul1Uow3WSi-121" vertex="1">
          <mxGeometry x="30" width="190" height="25" as="geometry">
            <mxRectangle width="190" height="25" as="alternateBounds" />
          </mxGeometry>
        </mxCell>
        <mxCell id="zgshCLYlO7Ul1Uow3WSi-149" value="" style="shape=tableRow;horizontal=0;startSize=0;swimlaneHead=0;swimlaneBody=0;fillColor=none;collapsible=0;dropTarget=0;points=[[0,0.5],[1,0.5]];portConstraint=eastwest;top=0;left=0;right=0;bottom=0;fontSize=20;labelBackgroundColor=none;labelBorderColor=none;textShadow=1;whiteSpace=wrap;html=1;" parent="zgshCLYlO7Ul1Uow3WSi-105" vertex="1">
          <mxGeometry y="205" width="220" height="25" as="geometry" />
        </mxCell>
        <mxCell id="zgshCLYlO7Ul1Uow3WSi-150" value="" style="shape=partialRectangle;connectable=0;fillColor=none;top=0;left=0;bottom=0;right=0;editable=1;overflow=hidden;whiteSpace=wrap;html=1;fontSize=20;labelBackgroundColor=none;labelBorderColor=none;textShadow=1;" parent="zgshCLYlO7Ul1Uow3WSi-149" vertex="1">
          <mxGeometry width="30" height="25" as="geometry">
            <mxRectangle width="30" height="25" as="alternateBounds" />
          </mxGeometry>
        </mxCell>
        <mxCell id="zgshCLYlO7Ul1Uow3WSi-151" value="RentAmount" style="shape=partialRectangle;connectable=0;fillColor=none;top=0;left=0;bottom=0;right=0;align=left;spacingLeft=6;overflow=hidden;whiteSpace=wrap;html=1;fontSize=20;labelBackgroundColor=none;labelBorderColor=none;textShadow=1;" parent="zgshCLYlO7Ul1Uow3WSi-149" vertex="1">
          <mxGeometry x="30" width="190" height="25" as="geometry">
            <mxRectangle width="190" height="25" as="alternateBounds" />
          </mxGeometry>
        </mxCell>
        <mxCell id="zgshCLYlO7Ul1Uow3WSi-152" value="" style="shape=tableRow;horizontal=0;startSize=0;swimlaneHead=0;swimlaneBody=0;fillColor=none;collapsible=0;dropTarget=0;points=[[0,0.5],[1,0.5]];portConstraint=eastwest;top=0;left=0;right=0;bottom=0;fontSize=20;labelBackgroundColor=none;labelBorderColor=none;textShadow=1;whiteSpace=wrap;html=1;" parent="zgshCLYlO7Ul1Uow3WSi-105" vertex="1">
          <mxGeometry y="230" width="220" height="25" as="geometry" />
        </mxCell>
        <mxCell id="zgshCLYlO7Ul1Uow3WSi-153" value="" style="shape=partialRectangle;connectable=0;fillColor=none;top=0;left=0;bottom=0;right=0;editable=1;overflow=hidden;whiteSpace=wrap;html=1;fontSize=20;labelBackgroundColor=none;labelBorderColor=none;textShadow=1;" parent="zgshCLYlO7Ul1Uow3WSi-152" vertex="1">
          <mxGeometry width="30" height="25" as="geometry">
            <mxRectangle width="30" height="25" as="alternateBounds" />
          </mxGeometry>
        </mxCell>
        <mxCell id="zgshCLYlO7Ul1Uow3WSi-154" value="SecurityDeposit" style="shape=partialRectangle;connectable=0;fillColor=none;top=0;left=0;bottom=0;right=0;align=left;spacingLeft=6;overflow=hidden;whiteSpace=wrap;html=1;fontSize=20;labelBackgroundColor=none;labelBorderColor=none;textShadow=1;" parent="zgshCLYlO7Ul1Uow3WSi-152" vertex="1">
          <mxGeometry x="30" width="190" height="25" as="geometry">
            <mxRectangle width="190" height="25" as="alternateBounds" />
          </mxGeometry>
        </mxCell>
        <mxCell id="zgshCLYlO7Ul1Uow3WSi-155" value="" style="shape=tableRow;horizontal=0;startSize=0;swimlaneHead=0;swimlaneBody=0;fillColor=none;collapsible=0;dropTarget=0;points=[[0,0.5],[1,0.5]];portConstraint=eastwest;top=0;left=0;right=0;bottom=0;fontSize=20;labelBackgroundColor=none;labelBorderColor=none;textShadow=1;whiteSpace=wrap;html=1;" parent="zgshCLYlO7Ul1Uow3WSi-105" vertex="1">
          <mxGeometry y="255" width="220" height="35" as="geometry" />
        </mxCell>
        <mxCell id="zgshCLYlO7Ul1Uow3WSi-156" value="" style="shape=partialRectangle;connectable=0;fillColor=none;top=0;left=0;bottom=0;right=0;editable=1;overflow=hidden;whiteSpace=wrap;html=1;fontSize=20;labelBackgroundColor=none;labelBorderColor=none;textShadow=1;" parent="zgshCLYlO7Ul1Uow3WSi-155" vertex="1">
          <mxGeometry width="30" height="35" as="geometry">
            <mxRectangle width="30" height="35" as="alternateBounds" />
          </mxGeometry>
        </mxCell>
        <mxCell id="zgshCLYlO7Ul1Uow3WSi-157" value="PaymentFrequency" style="shape=partialRectangle;connectable=0;fillColor=none;top=0;left=0;bottom=0;right=0;align=left;spacingLeft=6;overflow=hidden;whiteSpace=wrap;html=1;fontSize=20;labelBackgroundColor=none;labelBorderColor=none;textShadow=1;" parent="zgshCLYlO7Ul1Uow3WSi-155" vertex="1">
          <mxGeometry x="30" width="190" height="35" as="geometry">
            <mxRectangle width="190" height="35" as="alternateBounds" />
          </mxGeometry>
        </mxCell>
        <mxCell id="zgshCLYlO7Ul1Uow3WSi-158" value="" style="shape=tableRow;horizontal=0;startSize=0;swimlaneHead=0;swimlaneBody=0;fillColor=none;collapsible=0;dropTarget=0;points=[[0,0.5],[1,0.5]];portConstraint=eastwest;top=0;left=0;right=0;bottom=0;fontSize=20;labelBackgroundColor=none;labelBorderColor=none;textShadow=1;whiteSpace=wrap;html=1;" parent="zgshCLYlO7Ul1Uow3WSi-105" vertex="1">
          <mxGeometry y="290" width="220" height="30" as="geometry" />
        </mxCell>
        <mxCell id="zgshCLYlO7Ul1Uow3WSi-159" value="" style="shape=partialRectangle;connectable=0;fillColor=none;top=0;left=0;bottom=0;right=0;editable=1;overflow=hidden;whiteSpace=wrap;html=1;fontSize=20;labelBackgroundColor=none;labelBorderColor=none;textShadow=1;" parent="zgshCLYlO7Ul1Uow3WSi-158" vertex="1">
          <mxGeometry width="30" height="30" as="geometry">
            <mxRectangle width="30" height="30" as="alternateBounds" />
          </mxGeometry>
        </mxCell>
        <mxCell id="zgshCLYlO7Ul1Uow3WSi-160" value="LeaseType" style="shape=partialRectangle;connectable=0;fillColor=none;top=0;left=0;bottom=0;right=0;align=left;spacingLeft=6;overflow=hidden;whiteSpace=wrap;html=1;fontSize=20;labelBackgroundColor=none;labelBorderColor=none;textShadow=1;" parent="zgshCLYlO7Ul1Uow3WSi-158" vertex="1">
          <mxGeometry x="30" width="190" height="30" as="geometry">
            <mxRectangle width="190" height="30" as="alternateBounds" />
          </mxGeometry>
        </mxCell>
        <mxCell id="zgshCLYlO7Ul1Uow3WSi-161" value="" style="shape=tableRow;horizontal=0;startSize=0;swimlaneHead=0;swimlaneBody=0;fillColor=none;collapsible=0;dropTarget=0;points=[[0,0.5],[1,0.5]];portConstraint=eastwest;top=0;left=0;right=0;bottom=0;fontSize=20;labelBackgroundColor=none;labelBorderColor=none;textShadow=1;whiteSpace=wrap;html=1;" parent="zgshCLYlO7Ul1Uow3WSi-105" vertex="1">
          <mxGeometry y="320" width="220" height="30" as="geometry" />
        </mxCell>
        <mxCell id="zgshCLYlO7Ul1Uow3WSi-162" value="" style="shape=partialRectangle;connectable=0;fillColor=none;top=0;left=0;bottom=0;right=0;editable=1;overflow=hidden;whiteSpace=wrap;html=1;fontSize=20;labelBackgroundColor=none;labelBorderColor=none;textShadow=1;" parent="zgshCLYlO7Ul1Uow3WSi-161" vertex="1">
          <mxGeometry width="30" height="30" as="geometry">
            <mxRectangle width="30" height="30" as="alternateBounds" />
          </mxGeometry>
        </mxCell>
        <mxCell id="zgshCLYlO7Ul1Uow3WSi-163" value="RenewalOptions" style="shape=partialRectangle;connectable=0;fillColor=none;top=0;left=0;bottom=0;right=0;align=left;spacingLeft=6;overflow=hidden;whiteSpace=wrap;html=1;fontSize=20;labelBackgroundColor=none;labelBorderColor=none;textShadow=1;" parent="zgshCLYlO7Ul1Uow3WSi-161" vertex="1">
          <mxGeometry x="30" width="190" height="30" as="geometry">
            <mxRectangle width="190" height="30" as="alternateBounds" />
          </mxGeometry>
        </mxCell>
        <mxCell id="zgshCLYlO7Ul1Uow3WSi-164" value="Sales" style="shape=table;startSize=30;container=1;collapsible=1;childLayout=tableLayout;fixedRows=1;rowLines=0;fontStyle=1;align=center;resizeLast=1;html=1;fontSize=20;labelBackgroundColor=none;labelBorderColor=none;textShadow=1;whiteSpace=wrap;" parent="1" vertex="1">
          <mxGeometry x="80" y="720" width="180" height="260" as="geometry" />
        </mxCell>
        <mxCell id="zgshCLYlO7Ul1Uow3WSi-165" value="" style="shape=tableRow;horizontal=0;startSize=0;swimlaneHead=0;swimlaneBody=0;fillColor=none;collapsible=0;dropTarget=0;points=[[0,0.5],[1,0.5]];portConstraint=eastwest;top=0;left=0;right=0;bottom=1;fontSize=20;labelBackgroundColor=none;labelBorderColor=none;textShadow=1;whiteSpace=wrap;html=1;" parent="zgshCLYlO7Ul1Uow3WSi-164" vertex="1">
          <mxGeometry y="30" width="180" height="30" as="geometry" />
        </mxCell>
        <mxCell id="zgshCLYlO7Ul1Uow3WSi-166" value="PK" style="shape=partialRectangle;connectable=0;fillColor=none;top=0;left=0;bottom=0;right=0;fontStyle=1;overflow=hidden;whiteSpace=wrap;html=1;fontSize=20;labelBackgroundColor=none;labelBorderColor=none;textShadow=1;" parent="zgshCLYlO7Ul1Uow3WSi-165" vertex="1">
          <mxGeometry width="30" height="30" as="geometry">
            <mxRectangle width="30" height="30" as="alternateBounds" />
          </mxGeometry>
        </mxCell>
        <mxCell id="zgshCLYlO7Ul1Uow3WSi-167" value="SalesID" style="shape=partialRectangle;connectable=0;fillColor=none;top=0;left=0;bottom=0;right=0;align=left;spacingLeft=6;fontStyle=5;overflow=hidden;whiteSpace=wrap;html=1;fontSize=20;labelBackgroundColor=none;labelBorderColor=none;textShadow=1;" parent="zgshCLYlO7Ul1Uow3WSi-165" vertex="1">
          <mxGeometry x="30" width="150" height="30" as="geometry">
            <mxRectangle width="150" height="30" as="alternateBounds" />
          </mxGeometry>
        </mxCell>
        <mxCell id="zgshCLYlO7Ul1Uow3WSi-168" value="" style="shape=tableRow;horizontal=0;startSize=0;swimlaneHead=0;swimlaneBody=0;fillColor=none;collapsible=0;dropTarget=0;points=[[0,0.5],[1,0.5]];portConstraint=eastwest;top=0;left=0;right=0;bottom=0;fontSize=20;labelBackgroundColor=none;labelBorderColor=none;textShadow=1;whiteSpace=wrap;html=1;" parent="zgshCLYlO7Ul1Uow3WSi-164" vertex="1">
          <mxGeometry y="60" width="180" height="30" as="geometry" />
        </mxCell>
        <mxCell id="zgshCLYlO7Ul1Uow3WSi-169" value="FK" style="shape=partialRectangle;connectable=0;fillColor=none;top=0;left=0;bottom=0;right=0;editable=1;overflow=hidden;whiteSpace=wrap;html=1;fontSize=20;labelBackgroundColor=none;labelBorderColor=none;textShadow=1;" parent="zgshCLYlO7Ul1Uow3WSi-168" vertex="1">
          <mxGeometry width="30" height="30" as="geometry">
            <mxRectangle width="30" height="30" as="alternateBounds" />
          </mxGeometry>
        </mxCell>
        <mxCell id="zgshCLYlO7Ul1Uow3WSi-170" value="ShopID" style="shape=partialRectangle;connectable=0;fillColor=none;top=0;left=0;bottom=0;right=0;align=left;spacingLeft=6;overflow=hidden;whiteSpace=wrap;html=1;fontSize=20;labelBackgroundColor=none;labelBorderColor=none;textShadow=1;" parent="zgshCLYlO7Ul1Uow3WSi-168" vertex="1">
          <mxGeometry x="30" width="150" height="30" as="geometry">
            <mxRectangle width="150" height="30" as="alternateBounds" />
          </mxGeometry>
        </mxCell>
        <mxCell id="zgshCLYlO7Ul1Uow3WSi-171" value="" style="shape=tableRow;horizontal=0;startSize=0;swimlaneHead=0;swimlaneBody=0;fillColor=none;collapsible=0;dropTarget=0;points=[[0,0.5],[1,0.5]];portConstraint=eastwest;top=0;left=0;right=0;bottom=0;fontSize=20;labelBackgroundColor=none;labelBorderColor=none;textShadow=1;whiteSpace=wrap;html=1;" parent="zgshCLYlO7Ul1Uow3WSi-164" vertex="1">
          <mxGeometry y="90" width="180" height="25" as="geometry" />
        </mxCell>
        <mxCell id="zgshCLYlO7Ul1Uow3WSi-172" value="FK" style="shape=partialRectangle;connectable=0;fillColor=none;top=0;left=0;bottom=0;right=0;editable=1;overflow=hidden;whiteSpace=wrap;html=1;fontSize=20;labelBackgroundColor=none;labelBorderColor=none;textShadow=1;" parent="zgshCLYlO7Ul1Uow3WSi-171" vertex="1">
          <mxGeometry width="30" height="25" as="geometry">
            <mxRectangle width="30" height="25" as="alternateBounds" />
          </mxGeometry>
        </mxCell>
        <mxCell id="zgshCLYlO7Ul1Uow3WSi-173" value="ProductID" style="shape=partialRectangle;connectable=0;fillColor=none;top=0;left=0;bottom=0;right=0;align=left;spacingLeft=6;overflow=hidden;whiteSpace=wrap;html=1;fontSize=20;labelBackgroundColor=none;labelBorderColor=none;textShadow=1;" parent="zgshCLYlO7Ul1Uow3WSi-171" vertex="1">
          <mxGeometry x="30" width="150" height="25" as="geometry">
            <mxRectangle width="150" height="25" as="alternateBounds" />
          </mxGeometry>
        </mxCell>
        <mxCell id="zgshCLYlO7Ul1Uow3WSi-174" value="" style="shape=tableRow;horizontal=0;startSize=0;swimlaneHead=0;swimlaneBody=0;fillColor=none;collapsible=0;dropTarget=0;points=[[0,0.5],[1,0.5]];portConstraint=eastwest;top=0;left=0;right=0;bottom=0;fontSize=20;labelBackgroundColor=none;labelBorderColor=none;textShadow=1;whiteSpace=wrap;html=1;" parent="zgshCLYlO7Ul1Uow3WSi-164" vertex="1">
          <mxGeometry y="115" width="180" height="30" as="geometry" />
        </mxCell>
        <mxCell id="zgshCLYlO7Ul1Uow3WSi-175" value="FK" style="shape=partialRectangle;connectable=0;fillColor=none;top=0;left=0;bottom=0;right=0;editable=1;overflow=hidden;whiteSpace=wrap;html=1;fontSize=20;labelBackgroundColor=none;labelBorderColor=none;textShadow=1;" parent="zgshCLYlO7Ul1Uow3WSi-174" vertex="1">
          <mxGeometry width="30" height="30" as="geometry">
            <mxRectangle width="30" height="30" as="alternateBounds" />
          </mxGeometry>
        </mxCell>
        <mxCell id="zgshCLYlO7Ul1Uow3WSi-176" value="CustomerID" style="shape=partialRectangle;connectable=0;fillColor=none;top=0;left=0;bottom=0;right=0;align=left;spacingLeft=6;overflow=hidden;whiteSpace=wrap;html=1;fontSize=20;labelBackgroundColor=none;labelBorderColor=none;textShadow=1;" parent="zgshCLYlO7Ul1Uow3WSi-174" vertex="1">
          <mxGeometry x="30" width="150" height="30" as="geometry">
            <mxRectangle width="150" height="30" as="alternateBounds" />
          </mxGeometry>
        </mxCell>
        <mxCell id="zgshCLYlO7Ul1Uow3WSi-177" value="" style="shape=tableRow;horizontal=0;startSize=0;swimlaneHead=0;swimlaneBody=0;fillColor=none;collapsible=0;dropTarget=0;points=[[0,0.5],[1,0.5]];portConstraint=eastwest;top=0;left=0;right=0;bottom=0;fontSize=20;labelBackgroundColor=none;labelBorderColor=none;textShadow=1;whiteSpace=wrap;html=1;" parent="zgshCLYlO7Ul1Uow3WSi-164" vertex="1">
          <mxGeometry y="145" width="180" height="30" as="geometry" />
        </mxCell>
        <mxCell id="zgshCLYlO7Ul1Uow3WSi-178" value="" style="shape=partialRectangle;connectable=0;fillColor=none;top=0;left=0;bottom=0;right=0;editable=1;overflow=hidden;whiteSpace=wrap;html=1;fontSize=20;labelBackgroundColor=none;labelBorderColor=none;textShadow=1;" parent="zgshCLYlO7Ul1Uow3WSi-177" vertex="1">
          <mxGeometry width="30" height="30" as="geometry">
            <mxRectangle width="30" height="30" as="alternateBounds" />
          </mxGeometry>
        </mxCell>
        <mxCell id="zgshCLYlO7Ul1Uow3WSi-179" value="DateOfSales" style="shape=partialRectangle;connectable=0;fillColor=none;top=0;left=0;bottom=0;right=0;align=left;spacingLeft=6;overflow=hidden;whiteSpace=wrap;html=1;fontSize=20;labelBackgroundColor=none;labelBorderColor=none;textShadow=1;" parent="zgshCLYlO7Ul1Uow3WSi-177" vertex="1">
          <mxGeometry x="30" width="150" height="30" as="geometry">
            <mxRectangle width="150" height="30" as="alternateBounds" />
          </mxGeometry>
        </mxCell>
        <mxCell id="zgshCLYlO7Ul1Uow3WSi-180" value="" style="shape=tableRow;horizontal=0;startSize=0;swimlaneHead=0;swimlaneBody=0;fillColor=none;collapsible=0;dropTarget=0;points=[[0,0.5],[1,0.5]];portConstraint=eastwest;top=0;left=0;right=0;bottom=0;fontSize=20;labelBackgroundColor=none;labelBorderColor=none;textShadow=1;whiteSpace=wrap;html=1;" parent="zgshCLYlO7Ul1Uow3WSi-164" vertex="1">
          <mxGeometry y="175" width="180" height="30" as="geometry" />
        </mxCell>
        <mxCell id="zgshCLYlO7Ul1Uow3WSi-181" value="" style="shape=partialRectangle;connectable=0;fillColor=none;top=0;left=0;bottom=0;right=0;editable=1;overflow=hidden;whiteSpace=wrap;html=1;fontSize=20;labelBackgroundColor=none;labelBorderColor=none;textShadow=1;" parent="zgshCLYlO7Ul1Uow3WSi-180" vertex="1">
          <mxGeometry width="30" height="30" as="geometry">
            <mxRectangle width="30" height="30" as="alternateBounds" />
          </mxGeometry>
        </mxCell>
        <mxCell id="zgshCLYlO7Ul1Uow3WSi-182" value="SalesQuantity" style="shape=partialRectangle;connectable=0;fillColor=none;top=0;left=0;bottom=0;right=0;align=left;spacingLeft=6;overflow=hidden;whiteSpace=wrap;html=1;fontSize=20;labelBackgroundColor=none;labelBorderColor=none;textShadow=1;" parent="zgshCLYlO7Ul1Uow3WSi-180" vertex="1">
          <mxGeometry x="30" width="150" height="30" as="geometry">
            <mxRectangle width="150" height="30" as="alternateBounds" />
          </mxGeometry>
        </mxCell>
        <mxCell id="zgshCLYlO7Ul1Uow3WSi-183" value="" style="shape=tableRow;horizontal=0;startSize=0;swimlaneHead=0;swimlaneBody=0;fillColor=none;collapsible=0;dropTarget=0;points=[[0,0.5],[1,0.5]];portConstraint=eastwest;top=0;left=0;right=0;bottom=0;fontSize=20;labelBackgroundColor=none;labelBorderColor=none;textShadow=1;whiteSpace=wrap;html=1;" parent="zgshCLYlO7Ul1Uow3WSi-164" vertex="1">
          <mxGeometry y="205" width="180" height="35" as="geometry" />
        </mxCell>
        <mxCell id="zgshCLYlO7Ul1Uow3WSi-184" value="" style="shape=partialRectangle;connectable=0;fillColor=none;top=0;left=0;bottom=0;right=0;editable=1;overflow=hidden;whiteSpace=wrap;html=1;fontSize=20;labelBackgroundColor=none;labelBorderColor=none;textShadow=1;" parent="zgshCLYlO7Ul1Uow3WSi-183" vertex="1">
          <mxGeometry width="30" height="35" as="geometry">
            <mxRectangle width="30" height="35" as="alternateBounds" />
          </mxGeometry>
        </mxCell>
        <mxCell id="zgshCLYlO7Ul1Uow3WSi-185" value="SalesUnitPrice" style="shape=partialRectangle;connectable=0;fillColor=none;top=0;left=0;bottom=0;right=0;align=left;spacingLeft=6;overflow=hidden;whiteSpace=wrap;html=1;fontSize=20;labelBackgroundColor=none;labelBorderColor=none;textShadow=1;" parent="zgshCLYlO7Ul1Uow3WSi-183" vertex="1">
          <mxGeometry x="30" width="150" height="35" as="geometry">
            <mxRectangle width="150" height="35" as="alternateBounds" />
          </mxGeometry>
        </mxCell>
        <mxCell id="zgshCLYlO7Ul1Uow3WSi-186" value="" style="shape=tableRow;horizontal=0;startSize=0;swimlaneHead=0;swimlaneBody=0;fillColor=none;collapsible=0;dropTarget=0;points=[[0,0.5],[1,0.5]];portConstraint=eastwest;top=0;left=0;right=0;bottom=0;fontSize=20;labelBackgroundColor=none;labelBorderColor=none;textShadow=1;whiteSpace=wrap;html=1;" parent="zgshCLYlO7Ul1Uow3WSi-164" vertex="1">
          <mxGeometry y="240" width="180" height="20" as="geometry" />
        </mxCell>
        <mxCell id="zgshCLYlO7Ul1Uow3WSi-187" value="" style="shape=partialRectangle;connectable=0;fillColor=none;top=0;left=0;bottom=0;right=0;editable=1;overflow=hidden;whiteSpace=wrap;html=1;fontSize=20;labelBackgroundColor=none;labelBorderColor=none;textShadow=1;" parent="zgshCLYlO7Ul1Uow3WSi-186" vertex="1">
          <mxGeometry width="30" height="20" as="geometry">
            <mxRectangle width="30" height="20" as="alternateBounds" />
          </mxGeometry>
        </mxCell>
        <mxCell id="zgshCLYlO7Ul1Uow3WSi-188" value="" style="shape=partialRectangle;connectable=0;fillColor=none;top=0;left=0;bottom=0;right=0;align=left;spacingLeft=6;overflow=hidden;whiteSpace=wrap;html=1;fontSize=20;labelBackgroundColor=none;labelBorderColor=none;textShadow=1;" parent="zgshCLYlO7Ul1Uow3WSi-186" vertex="1">
          <mxGeometry x="30" width="150" height="20" as="geometry">
            <mxRectangle width="150" height="20" as="alternateBounds" />
          </mxGeometry>
        </mxCell>
        <mxCell id="zgshCLYlO7Ul1Uow3WSi-191" value="Maintanance" style="shape=table;startSize=30;container=1;collapsible=1;childLayout=tableLayout;fixedRows=1;rowLines=0;fontStyle=1;align=center;resizeLast=1;html=1;fontSize=20;labelBackgroundColor=none;labelBorderColor=none;textShadow=1;whiteSpace=wrap;" parent="1" vertex="1">
          <mxGeometry x="-243" y="187" width="210" height="283" as="geometry" />
        </mxCell>
        <mxCell id="zgshCLYlO7Ul1Uow3WSi-192" value="" style="shape=tableRow;horizontal=0;startSize=0;swimlaneHead=0;swimlaneBody=0;fillColor=none;collapsible=0;dropTarget=0;points=[[0,0.5],[1,0.5]];portConstraint=eastwest;top=0;left=0;right=0;bottom=1;fontSize=20;labelBackgroundColor=none;labelBorderColor=none;textShadow=1;whiteSpace=wrap;html=1;" parent="zgshCLYlO7Ul1Uow3WSi-191" vertex="1">
          <mxGeometry y="30" width="210" height="30" as="geometry" />
        </mxCell>
        <mxCell id="zgshCLYlO7Ul1Uow3WSi-193" value="PK" style="shape=partialRectangle;connectable=0;fillColor=none;top=0;left=0;bottom=0;right=0;fontStyle=1;overflow=hidden;whiteSpace=wrap;html=1;fontSize=20;labelBackgroundColor=none;labelBorderColor=none;textShadow=1;" parent="zgshCLYlO7Ul1Uow3WSi-192" vertex="1">
          <mxGeometry width="30" height="30" as="geometry">
            <mxRectangle width="30" height="30" as="alternateBounds" />
          </mxGeometry>
        </mxCell>
        <mxCell id="zgshCLYlO7Ul1Uow3WSi-194" value="MaintananceID" style="shape=partialRectangle;connectable=0;fillColor=none;top=0;left=0;bottom=0;right=0;align=left;spacingLeft=6;fontStyle=5;overflow=hidden;whiteSpace=wrap;html=1;fontSize=20;labelBackgroundColor=none;labelBorderColor=none;textShadow=1;" parent="zgshCLYlO7Ul1Uow3WSi-192" vertex="1">
          <mxGeometry x="30" width="180" height="30" as="geometry">
            <mxRectangle width="180" height="30" as="alternateBounds" />
          </mxGeometry>
        </mxCell>
        <mxCell id="zgshCLYlO7Ul1Uow3WSi-195" value="" style="shape=tableRow;horizontal=0;startSize=0;swimlaneHead=0;swimlaneBody=0;fillColor=none;collapsible=0;dropTarget=0;points=[[0,0.5],[1,0.5]];portConstraint=eastwest;top=0;left=0;right=0;bottom=0;fontSize=20;labelBackgroundColor=none;labelBorderColor=none;textShadow=1;whiteSpace=wrap;html=1;" parent="zgshCLYlO7Ul1Uow3WSi-191" vertex="1">
          <mxGeometry y="60" width="210" height="30" as="geometry" />
        </mxCell>
        <mxCell id="zgshCLYlO7Ul1Uow3WSi-196" value="FK" style="shape=partialRectangle;connectable=0;fillColor=none;top=0;left=0;bottom=0;right=0;editable=1;overflow=hidden;whiteSpace=wrap;html=1;fontSize=20;labelBackgroundColor=none;labelBorderColor=none;textShadow=1;" parent="zgshCLYlO7Ul1Uow3WSi-195" vertex="1">
          <mxGeometry width="30" height="30" as="geometry">
            <mxRectangle width="30" height="30" as="alternateBounds" />
          </mxGeometry>
        </mxCell>
        <mxCell id="zgshCLYlO7Ul1Uow3WSi-197" value="ShopID" style="shape=partialRectangle;connectable=0;fillColor=none;top=0;left=0;bottom=0;right=0;align=left;spacingLeft=6;overflow=hidden;whiteSpace=wrap;html=1;fontSize=20;labelBackgroundColor=none;labelBorderColor=none;textShadow=1;" parent="zgshCLYlO7Ul1Uow3WSi-195" vertex="1">
          <mxGeometry x="30" width="180" height="30" as="geometry">
            <mxRectangle width="180" height="30" as="alternateBounds" />
          </mxGeometry>
        </mxCell>
        <mxCell id="zgshCLYlO7Ul1Uow3WSi-198" value="" style="shape=tableRow;horizontal=0;startSize=0;swimlaneHead=0;swimlaneBody=0;fillColor=none;collapsible=0;dropTarget=0;points=[[0,0.5],[1,0.5]];portConstraint=eastwest;top=0;left=0;right=0;bottom=0;fontSize=20;labelBackgroundColor=none;labelBorderColor=none;textShadow=1;whiteSpace=wrap;html=1;" parent="zgshCLYlO7Ul1Uow3WSi-191" vertex="1">
          <mxGeometry y="90" width="210" height="25" as="geometry" />
        </mxCell>
        <mxCell id="zgshCLYlO7Ul1Uow3WSi-199" value="" style="shape=partialRectangle;connectable=0;fillColor=none;top=0;left=0;bottom=0;right=0;editable=1;overflow=hidden;whiteSpace=wrap;html=1;fontSize=20;labelBackgroundColor=none;labelBorderColor=none;textShadow=1;" parent="zgshCLYlO7Ul1Uow3WSi-198" vertex="1">
          <mxGeometry width="30" height="25" as="geometry">
            <mxRectangle width="30" height="25" as="alternateBounds" />
          </mxGeometry>
        </mxCell>
        <mxCell id="zgshCLYlO7Ul1Uow3WSi-200" value="MaintananceStatus" style="shape=partialRectangle;connectable=0;fillColor=none;top=0;left=0;bottom=0;right=0;align=left;spacingLeft=6;overflow=hidden;whiteSpace=wrap;html=1;fontSize=20;labelBackgroundColor=none;labelBorderColor=none;textShadow=1;" parent="zgshCLYlO7Ul1Uow3WSi-198" vertex="1">
          <mxGeometry x="30" width="180" height="25" as="geometry">
            <mxRectangle width="180" height="25" as="alternateBounds" />
          </mxGeometry>
        </mxCell>
        <mxCell id="zgshCLYlO7Ul1Uow3WSi-201" value="" style="shape=tableRow;horizontal=0;startSize=0;swimlaneHead=0;swimlaneBody=0;fillColor=none;collapsible=0;dropTarget=0;points=[[0,0.5],[1,0.5]];portConstraint=eastwest;top=0;left=0;right=0;bottom=0;fontSize=20;labelBackgroundColor=none;labelBorderColor=none;textShadow=1;whiteSpace=wrap;html=1;" parent="zgshCLYlO7Ul1Uow3WSi-191" vertex="1">
          <mxGeometry y="115" width="210" height="30" as="geometry" />
        </mxCell>
        <mxCell id="zgshCLYlO7Ul1Uow3WSi-202" value="" style="shape=partialRectangle;connectable=0;fillColor=none;top=0;left=0;bottom=0;right=0;editable=1;overflow=hidden;whiteSpace=wrap;html=1;fontSize=20;labelBackgroundColor=none;labelBorderColor=none;textShadow=1;" parent="zgshCLYlO7Ul1Uow3WSi-201" vertex="1">
          <mxGeometry width="30" height="30" as="geometry">
            <mxRectangle width="30" height="30" as="alternateBounds" />
          </mxGeometry>
        </mxCell>
        <mxCell id="zgshCLYlO7Ul1Uow3WSi-203" value="CostEstimate" style="shape=partialRectangle;connectable=0;fillColor=none;top=0;left=0;bottom=0;right=0;align=left;spacingLeft=6;overflow=hidden;whiteSpace=wrap;html=1;fontSize=20;labelBackgroundColor=none;labelBorderColor=none;textShadow=1;" parent="zgshCLYlO7Ul1Uow3WSi-201" vertex="1">
          <mxGeometry x="30" width="180" height="30" as="geometry">
            <mxRectangle width="180" height="30" as="alternateBounds" />
          </mxGeometry>
        </mxCell>
        <mxCell id="zgshCLYlO7Ul1Uow3WSi-204" value="" style="shape=tableRow;horizontal=0;startSize=0;swimlaneHead=0;swimlaneBody=0;fillColor=none;collapsible=0;dropTarget=0;points=[[0,0.5],[1,0.5]];portConstraint=eastwest;top=0;left=0;right=0;bottom=0;fontSize=20;labelBackgroundColor=none;labelBorderColor=none;textShadow=1;whiteSpace=wrap;html=1;" parent="zgshCLYlO7Ul1Uow3WSi-191" vertex="1">
          <mxGeometry y="145" width="210" height="53" as="geometry" />
        </mxCell>
        <mxCell id="zgshCLYlO7Ul1Uow3WSi-205" value="" style="shape=partialRectangle;connectable=0;fillColor=none;top=0;left=0;bottom=0;right=0;editable=1;overflow=hidden;whiteSpace=wrap;html=1;fontSize=20;labelBackgroundColor=none;labelBorderColor=none;textShadow=1;" parent="zgshCLYlO7Ul1Uow3WSi-204" vertex="1">
          <mxGeometry width="30" height="53" as="geometry">
            <mxRectangle width="30" height="53" as="alternateBounds" />
          </mxGeometry>
        </mxCell>
        <mxCell id="zgshCLYlO7Ul1Uow3WSi-206" value="ActualCost" style="shape=partialRectangle;connectable=0;fillColor=none;top=0;left=0;bottom=0;right=0;align=left;spacingLeft=6;overflow=hidden;whiteSpace=wrap;html=1;fontSize=20;labelBackgroundColor=none;labelBorderColor=none;textShadow=1;" parent="zgshCLYlO7Ul1Uow3WSi-204" vertex="1">
          <mxGeometry x="30" width="180" height="53" as="geometry">
            <mxRectangle width="180" height="53" as="alternateBounds" />
          </mxGeometry>
        </mxCell>
        <mxCell id="zgshCLYlO7Ul1Uow3WSi-207" value="" style="shape=tableRow;horizontal=0;startSize=0;swimlaneHead=0;swimlaneBody=0;fillColor=none;collapsible=0;dropTarget=0;points=[[0,0.5],[1,0.5]];portConstraint=eastwest;top=0;left=0;right=0;bottom=0;fontSize=20;labelBackgroundColor=none;labelBorderColor=none;textShadow=1;whiteSpace=wrap;html=1;" parent="zgshCLYlO7Ul1Uow3WSi-191" vertex="1">
          <mxGeometry y="198" width="210" height="30" as="geometry" />
        </mxCell>
        <mxCell id="zgshCLYlO7Ul1Uow3WSi-208" value="" style="shape=partialRectangle;connectable=0;fillColor=none;top=0;left=0;bottom=0;right=0;editable=1;overflow=hidden;whiteSpace=wrap;html=1;fontSize=20;labelBackgroundColor=none;labelBorderColor=none;textShadow=1;" parent="zgshCLYlO7Ul1Uow3WSi-207" vertex="1">
          <mxGeometry width="30" height="30" as="geometry">
            <mxRectangle width="30" height="30" as="alternateBounds" />
          </mxGeometry>
        </mxCell>
        <mxCell id="zgshCLYlO7Ul1Uow3WSi-209" value="PriorityOfJob" style="shape=partialRectangle;connectable=0;fillColor=none;top=0;left=0;bottom=0;right=0;align=left;spacingLeft=6;overflow=hidden;whiteSpace=wrap;html=1;fontSize=20;labelBackgroundColor=none;labelBorderColor=none;textShadow=1;" parent="zgshCLYlO7Ul1Uow3WSi-207" vertex="1">
          <mxGeometry x="30" width="180" height="30" as="geometry">
            <mxRectangle width="180" height="30" as="alternateBounds" />
          </mxGeometry>
        </mxCell>
        <mxCell id="zgshCLYlO7Ul1Uow3WSi-210" value="" style="shape=tableRow;horizontal=0;startSize=0;swimlaneHead=0;swimlaneBody=0;fillColor=none;collapsible=0;dropTarget=0;points=[[0,0.5],[1,0.5]];portConstraint=eastwest;top=0;left=0;right=0;bottom=0;fontSize=20;labelBackgroundColor=none;labelBorderColor=none;textShadow=1;whiteSpace=wrap;html=1;" parent="zgshCLYlO7Ul1Uow3WSi-191" vertex="1">
          <mxGeometry y="228" width="210" height="35" as="geometry" />
        </mxCell>
        <mxCell id="zgshCLYlO7Ul1Uow3WSi-211" value="FK" style="shape=partialRectangle;connectable=0;fillColor=none;top=0;left=0;bottom=0;right=0;editable=1;overflow=hidden;whiteSpace=wrap;html=1;fontSize=20;labelBackgroundColor=none;labelBorderColor=none;textShadow=1;" parent="zgshCLYlO7Ul1Uow3WSi-210" vertex="1">
          <mxGeometry width="30" height="35" as="geometry">
            <mxRectangle width="30" height="35" as="alternateBounds" />
          </mxGeometry>
        </mxCell>
        <mxCell id="zgshCLYlO7Ul1Uow3WSi-212" value="EmployeeID" style="shape=partialRectangle;connectable=0;fillColor=none;top=0;left=0;bottom=0;right=0;align=left;spacingLeft=6;overflow=hidden;whiteSpace=wrap;html=1;fontSize=20;labelBackgroundColor=none;labelBorderColor=none;textShadow=1;" parent="zgshCLYlO7Ul1Uow3WSi-210" vertex="1">
          <mxGeometry x="30" width="180" height="35" as="geometry">
            <mxRectangle width="180" height="35" as="alternateBounds" />
          </mxGeometry>
        </mxCell>
        <mxCell id="zgshCLYlO7Ul1Uow3WSi-213" value="" style="shape=tableRow;horizontal=0;startSize=0;swimlaneHead=0;swimlaneBody=0;fillColor=none;collapsible=0;dropTarget=0;points=[[0,0.5],[1,0.5]];portConstraint=eastwest;top=0;left=0;right=0;bottom=0;fontSize=20;labelBackgroundColor=none;labelBorderColor=none;textShadow=1;whiteSpace=wrap;html=1;" parent="zgshCLYlO7Ul1Uow3WSi-191" vertex="1">
          <mxGeometry y="263" width="210" height="20" as="geometry" />
        </mxCell>
        <mxCell id="zgshCLYlO7Ul1Uow3WSi-214" value="" style="shape=partialRectangle;connectable=0;fillColor=none;top=0;left=0;bottom=0;right=0;editable=1;overflow=hidden;whiteSpace=wrap;html=1;fontSize=20;labelBackgroundColor=none;labelBorderColor=none;textShadow=1;" parent="zgshCLYlO7Ul1Uow3WSi-213" vertex="1">
          <mxGeometry width="30" height="20" as="geometry">
            <mxRectangle width="30" height="20" as="alternateBounds" />
          </mxGeometry>
        </mxCell>
        <mxCell id="zgshCLYlO7Ul1Uow3WSi-215" value="" style="shape=partialRectangle;connectable=0;fillColor=none;top=0;left=0;bottom=0;right=0;align=left;spacingLeft=6;overflow=hidden;whiteSpace=wrap;html=1;fontSize=20;labelBackgroundColor=none;labelBorderColor=none;textShadow=1;" parent="zgshCLYlO7Ul1Uow3WSi-213" vertex="1">
          <mxGeometry x="30" width="180" height="20" as="geometry">
            <mxRectangle width="180" height="20" as="alternateBounds" />
          </mxGeometry>
        </mxCell>
        <mxCell id="zgshCLYlO7Ul1Uow3WSi-216" value="&lt;span style=&quot;&quot;&gt;Products&lt;/span&gt;" style="shape=table;startSize=30;container=1;collapsible=1;childLayout=tableLayout;fixedRows=1;rowLines=0;fontStyle=1;align=center;resizeLast=1;html=1;swimlaneFillColor=none;labelBorderColor=none;labelBackgroundColor=none;fontSize=20;" parent="1" vertex="1">
          <mxGeometry x="440" y="820" width="260" height="280" as="geometry" />
        </mxCell>
        <mxCell id="zgshCLYlO7Ul1Uow3WSi-217" value="" style="shape=tableRow;horizontal=0;startSize=0;swimlaneHead=0;swimlaneBody=0;fillColor=none;collapsible=0;dropTarget=0;points=[[0,0.5],[1,0.5]];portConstraint=eastwest;top=0;left=0;right=0;bottom=1;fontSize=20;labelBackgroundColor=none;labelBorderColor=none;textShadow=1;whiteSpace=wrap;html=1;" parent="zgshCLYlO7Ul1Uow3WSi-216" vertex="1">
          <mxGeometry y="30" width="260" height="30" as="geometry" />
        </mxCell>
        <mxCell id="zgshCLYlO7Ul1Uow3WSi-218" value="PK" style="shape=partialRectangle;connectable=0;fillColor=none;top=0;left=0;bottom=0;right=0;fontStyle=1;overflow=hidden;whiteSpace=wrap;html=1;fontSize=20;labelBackgroundColor=none;labelBorderColor=none;textShadow=1;" parent="zgshCLYlO7Ul1Uow3WSi-217" vertex="1">
          <mxGeometry width="30" height="30" as="geometry">
            <mxRectangle width="30" height="30" as="alternateBounds" />
          </mxGeometry>
        </mxCell>
        <mxCell id="zgshCLYlO7Ul1Uow3WSi-219" value="ProductsID" style="shape=partialRectangle;connectable=0;fillColor=none;top=0;left=0;bottom=0;right=0;align=left;spacingLeft=6;fontStyle=5;overflow=hidden;whiteSpace=wrap;html=1;fontSize=20;labelBackgroundColor=none;labelBorderColor=none;textShadow=1;" parent="zgshCLYlO7Ul1Uow3WSi-217" vertex="1">
          <mxGeometry x="30" width="230" height="30" as="geometry">
            <mxRectangle width="230" height="30" as="alternateBounds" />
          </mxGeometry>
        </mxCell>
        <mxCell id="zgshCLYlO7Ul1Uow3WSi-220" value="" style="shape=tableRow;horizontal=0;startSize=0;swimlaneHead=0;swimlaneBody=0;fillColor=none;collapsible=0;dropTarget=0;points=[[0,0.5],[1,0.5]];portConstraint=eastwest;top=0;left=0;right=0;bottom=0;fontSize=20;labelBackgroundColor=none;labelBorderColor=none;textShadow=1;whiteSpace=wrap;html=1;" parent="zgshCLYlO7Ul1Uow3WSi-216" vertex="1">
          <mxGeometry y="60" width="260" height="30" as="geometry" />
        </mxCell>
        <mxCell id="zgshCLYlO7Ul1Uow3WSi-221" value="FK" style="shape=partialRectangle;connectable=0;fillColor=none;top=0;left=0;bottom=0;right=0;editable=1;overflow=hidden;whiteSpace=wrap;html=1;fontSize=20;labelBackgroundColor=none;labelBorderColor=none;textShadow=1;" parent="zgshCLYlO7Ul1Uow3WSi-220" vertex="1">
          <mxGeometry width="30" height="30" as="geometry">
            <mxRectangle width="30" height="30" as="alternateBounds" />
          </mxGeometry>
        </mxCell>
        <mxCell id="zgshCLYlO7Ul1Uow3WSi-222" value="ShopID" style="shape=partialRectangle;connectable=0;fillColor=none;top=0;left=0;bottom=0;right=0;align=left;spacingLeft=6;overflow=hidden;whiteSpace=wrap;html=1;fontSize=20;labelBackgroundColor=none;labelBorderColor=none;textShadow=1;" parent="zgshCLYlO7Ul1Uow3WSi-220" vertex="1">
          <mxGeometry x="30" width="230" height="30" as="geometry">
            <mxRectangle width="230" height="30" as="alternateBounds" />
          </mxGeometry>
        </mxCell>
        <mxCell id="zgshCLYlO7Ul1Uow3WSi-223" value="" style="shape=tableRow;horizontal=0;startSize=0;swimlaneHead=0;swimlaneBody=0;fillColor=none;collapsible=0;dropTarget=0;points=[[0,0.5],[1,0.5]];portConstraint=eastwest;top=0;left=0;right=0;bottom=0;fontSize=20;labelBackgroundColor=none;labelBorderColor=none;textShadow=1;whiteSpace=wrap;html=1;" parent="zgshCLYlO7Ul1Uow3WSi-216" vertex="1">
          <mxGeometry y="90" width="260" height="25" as="geometry" />
        </mxCell>
        <mxCell id="zgshCLYlO7Ul1Uow3WSi-224" value="" style="shape=partialRectangle;connectable=0;fillColor=none;top=0;left=0;bottom=0;right=0;editable=1;overflow=hidden;whiteSpace=wrap;html=1;fontSize=20;labelBackgroundColor=none;labelBorderColor=none;textShadow=1;" parent="zgshCLYlO7Ul1Uow3WSi-223" vertex="1">
          <mxGeometry width="30" height="25" as="geometry">
            <mxRectangle width="30" height="25" as="alternateBounds" />
          </mxGeometry>
        </mxCell>
        <mxCell id="zgshCLYlO7Ul1Uow3WSi-225" value="ProductName" style="shape=partialRectangle;connectable=0;fillColor=none;top=0;left=0;bottom=0;right=0;align=left;spacingLeft=6;overflow=hidden;whiteSpace=wrap;html=1;fontSize=20;labelBackgroundColor=none;labelBorderColor=none;textShadow=1;" parent="zgshCLYlO7Ul1Uow3WSi-223" vertex="1">
          <mxGeometry x="30" width="230" height="25" as="geometry">
            <mxRectangle width="230" height="25" as="alternateBounds" />
          </mxGeometry>
        </mxCell>
        <mxCell id="zgshCLYlO7Ul1Uow3WSi-226" value="" style="shape=tableRow;horizontal=0;startSize=0;swimlaneHead=0;swimlaneBody=0;fillColor=none;collapsible=0;dropTarget=0;points=[[0,0.5],[1,0.5]];portConstraint=eastwest;top=0;left=0;right=0;bottom=0;fontSize=20;labelBackgroundColor=none;labelBorderColor=none;textShadow=1;whiteSpace=wrap;html=1;" parent="zgshCLYlO7Ul1Uow3WSi-216" vertex="1">
          <mxGeometry y="115" width="260" height="30" as="geometry" />
        </mxCell>
        <mxCell id="zgshCLYlO7Ul1Uow3WSi-227" value="" style="shape=partialRectangle;connectable=0;fillColor=none;top=0;left=0;bottom=0;right=0;editable=1;overflow=hidden;whiteSpace=wrap;html=1;fontSize=20;labelBackgroundColor=none;labelBorderColor=none;textShadow=1;" parent="zgshCLYlO7Ul1Uow3WSi-226" vertex="1">
          <mxGeometry width="30" height="30" as="geometry">
            <mxRectangle width="30" height="30" as="alternateBounds" />
          </mxGeometry>
        </mxCell>
        <mxCell id="zgshCLYlO7Ul1Uow3WSi-228" value="Description" style="shape=partialRectangle;connectable=0;fillColor=none;top=0;left=0;bottom=0;right=0;align=left;spacingLeft=6;overflow=hidden;whiteSpace=wrap;html=1;fontSize=20;labelBackgroundColor=none;labelBorderColor=none;textShadow=1;" parent="zgshCLYlO7Ul1Uow3WSi-226" vertex="1">
          <mxGeometry x="30" width="230" height="30" as="geometry">
            <mxRectangle width="230" height="30" as="alternateBounds" />
          </mxGeometry>
        </mxCell>
        <mxCell id="zgshCLYlO7Ul1Uow3WSi-229" value="" style="shape=tableRow;horizontal=0;startSize=0;swimlaneHead=0;swimlaneBody=0;fillColor=none;collapsible=0;dropTarget=0;points=[[0,0.5],[1,0.5]];portConstraint=eastwest;top=0;left=0;right=0;bottom=0;fontSize=20;labelBackgroundColor=none;labelBorderColor=none;textShadow=1;whiteSpace=wrap;html=1;" parent="zgshCLYlO7Ul1Uow3WSi-216" vertex="1">
          <mxGeometry y="145" width="260" height="35" as="geometry" />
        </mxCell>
        <mxCell id="zgshCLYlO7Ul1Uow3WSi-230" value="" style="shape=partialRectangle;connectable=0;fillColor=none;top=0;left=0;bottom=0;right=0;editable=1;overflow=hidden;whiteSpace=wrap;html=1;fontSize=20;labelBackgroundColor=none;labelBorderColor=none;textShadow=1;" parent="zgshCLYlO7Ul1Uow3WSi-229" vertex="1">
          <mxGeometry width="30" height="35" as="geometry">
            <mxRectangle width="30" height="35" as="alternateBounds" />
          </mxGeometry>
        </mxCell>
        <mxCell id="zgshCLYlO7Ul1Uow3WSi-231" value="Price" style="shape=partialRectangle;connectable=0;fillColor=none;top=0;left=0;bottom=0;right=0;align=left;spacingLeft=6;overflow=hidden;whiteSpace=wrap;html=1;fontSize=20;labelBackgroundColor=none;labelBorderColor=none;textShadow=1;" parent="zgshCLYlO7Ul1Uow3WSi-229" vertex="1">
          <mxGeometry x="30" width="230" height="35" as="geometry">
            <mxRectangle width="230" height="35" as="alternateBounds" />
          </mxGeometry>
        </mxCell>
        <mxCell id="zgshCLYlO7Ul1Uow3WSi-232" value="" style="shape=tableRow;horizontal=0;startSize=0;swimlaneHead=0;swimlaneBody=0;fillColor=none;collapsible=0;dropTarget=0;points=[[0,0.5],[1,0.5]];portConstraint=eastwest;top=0;left=0;right=0;bottom=0;fontSize=20;labelBackgroundColor=none;labelBorderColor=none;textShadow=1;whiteSpace=wrap;html=1;" parent="zgshCLYlO7Ul1Uow3WSi-216" vertex="1">
          <mxGeometry y="180" width="260" height="30" as="geometry" />
        </mxCell>
        <mxCell id="zgshCLYlO7Ul1Uow3WSi-233" value="" style="shape=partialRectangle;connectable=0;fillColor=none;top=0;left=0;bottom=0;right=0;editable=1;overflow=hidden;whiteSpace=wrap;html=1;fontSize=20;labelBackgroundColor=none;labelBorderColor=none;textShadow=1;" parent="zgshCLYlO7Ul1Uow3WSi-232" vertex="1">
          <mxGeometry width="30" height="30" as="geometry">
            <mxRectangle width="30" height="30" as="alternateBounds" />
          </mxGeometry>
        </mxCell>
        <mxCell id="zgshCLYlO7Ul1Uow3WSi-234" value="QuantityInStock" style="shape=partialRectangle;connectable=0;fillColor=none;top=0;left=0;bottom=0;right=0;align=left;spacingLeft=6;overflow=hidden;whiteSpace=wrap;html=1;fontSize=20;labelBackgroundColor=none;labelBorderColor=none;textShadow=1;" parent="zgshCLYlO7Ul1Uow3WSi-232" vertex="1">
          <mxGeometry x="30" width="230" height="30" as="geometry">
            <mxRectangle width="230" height="30" as="alternateBounds" />
          </mxGeometry>
        </mxCell>
        <mxCell id="zgshCLYlO7Ul1Uow3WSi-235" value="" style="shape=tableRow;horizontal=0;startSize=0;swimlaneHead=0;swimlaneBody=0;fillColor=none;collapsible=0;dropTarget=0;points=[[0,0.5],[1,0.5]];portConstraint=eastwest;top=0;left=0;right=0;bottom=0;labelBorderColor=none;labelBackgroundColor=none;fontSize=20;" parent="zgshCLYlO7Ul1Uow3WSi-216" vertex="1">
          <mxGeometry y="210" width="260" height="35" as="geometry" />
        </mxCell>
        <mxCell id="zgshCLYlO7Ul1Uow3WSi-236" value="" style="shape=partialRectangle;connectable=0;fillColor=none;top=0;left=0;bottom=0;right=0;editable=1;overflow=hidden;whiteSpace=wrap;html=1;labelBorderColor=none;labelBackgroundColor=none;fontSize=20;" parent="zgshCLYlO7Ul1Uow3WSi-235" vertex="1">
          <mxGeometry width="30" height="35" as="geometry">
            <mxRectangle width="30" height="35" as="alternateBounds" />
          </mxGeometry>
        </mxCell>
        <mxCell id="zgshCLYlO7Ul1Uow3WSi-237" value="Laybuys" style="shape=partialRectangle;connectable=0;fillColor=none;top=0;left=0;bottom=0;right=0;align=left;spacingLeft=6;overflow=hidden;whiteSpace=wrap;html=1;labelBorderColor=none;labelBackgroundColor=none;fontSize=20;" parent="zgshCLYlO7Ul1Uow3WSi-235" vertex="1">
          <mxGeometry x="30" width="230" height="35" as="geometry">
            <mxRectangle width="230" height="35" as="alternateBounds" />
          </mxGeometry>
        </mxCell>
        <mxCell id="zgshCLYlO7Ul1Uow3WSi-238" value="" style="shape=tableRow;horizontal=0;startSize=0;swimlaneHead=0;swimlaneBody=0;fillColor=none;collapsible=0;dropTarget=0;points=[[0,0.5],[1,0.5]];portConstraint=eastwest;top=0;left=0;right=0;bottom=0;labelBorderColor=none;labelBackgroundColor=none;fontSize=20;" parent="zgshCLYlO7Ul1Uow3WSi-216" vertex="1">
          <mxGeometry y="245" width="260" height="35" as="geometry" />
        </mxCell>
        <mxCell id="zgshCLYlO7Ul1Uow3WSi-239" value="" style="shape=partialRectangle;connectable=0;fillColor=none;top=0;left=0;bottom=0;right=0;editable=1;overflow=hidden;whiteSpace=wrap;html=1;labelBorderColor=none;labelBackgroundColor=none;fontSize=20;" parent="zgshCLYlO7Ul1Uow3WSi-238" vertex="1">
          <mxGeometry width="30" height="35" as="geometry">
            <mxRectangle width="30" height="35" as="alternateBounds" />
          </mxGeometry>
        </mxCell>
        <mxCell id="zgshCLYlO7Ul1Uow3WSi-240" value="ReorderQuantityLevel" style="shape=partialRectangle;connectable=0;fillColor=none;top=0;left=0;bottom=0;right=0;align=left;spacingLeft=6;overflow=hidden;whiteSpace=wrap;html=1;labelBorderColor=none;labelBackgroundColor=none;fontSize=20;" parent="zgshCLYlO7Ul1Uow3WSi-238" vertex="1">
          <mxGeometry x="30" width="230" height="35" as="geometry">
            <mxRectangle width="230" height="35" as="alternateBounds" />
          </mxGeometry>
        </mxCell>
        <mxCell id="zgshCLYlO7Ul1Uow3WSi-241" value="SecurityForIncident" style="shape=table;startSize=28;container=1;collapsible=1;childLayout=tableLayout;fixedRows=1;rowLines=0;fontStyle=1;align=center;resizeLast=1;html=1;fontSize=20;labelBackgroundColor=none;labelBorderColor=none;textShadow=1;whiteSpace=wrap;" parent="1" vertex="1">
          <mxGeometry x="-198" y="1056" width="193.99996243990367" height="246.727306019176" as="geometry" />
        </mxCell>
        <mxCell id="zgshCLYlO7Ul1Uow3WSi-242" value="" style="shape=tableRow;horizontal=0;startSize=0;swimlaneHead=0;swimlaneBody=0;fillColor=none;collapsible=0;dropTarget=0;points=[[0,0.5],[1,0.5]];portConstraint=eastwest;top=0;left=0;right=0;bottom=1;fontSize=20;labelBackgroundColor=none;labelBorderColor=none;textShadow=1;whiteSpace=wrap;html=1;" parent="zgshCLYlO7Ul1Uow3WSi-241" vertex="1">
          <mxGeometry y="28" width="193.99996243990367" height="30" as="geometry" />
        </mxCell>
        <mxCell id="zgshCLYlO7Ul1Uow3WSi-243" value="PK" style="shape=partialRectangle;connectable=0;fillColor=none;top=0;left=0;bottom=0;right=0;fontStyle=1;overflow=hidden;whiteSpace=wrap;html=1;fontSize=20;labelBackgroundColor=none;labelBorderColor=none;textShadow=1;" parent="zgshCLYlO7Ul1Uow3WSi-242" vertex="1">
          <mxGeometry width="40" height="30" as="geometry">
            <mxRectangle width="40" height="30" as="alternateBounds" />
          </mxGeometry>
        </mxCell>
        <mxCell id="zgshCLYlO7Ul1Uow3WSi-244" value="IncidentID" style="shape=partialRectangle;connectable=0;fillColor=none;top=0;left=0;bottom=0;right=0;align=left;spacingLeft=6;fontStyle=5;overflow=hidden;whiteSpace=wrap;html=1;fontSize=20;labelBackgroundColor=none;labelBorderColor=none;textShadow=1;" parent="zgshCLYlO7Ul1Uow3WSi-242" vertex="1">
          <mxGeometry x="40" width="153.99996243990367" height="30" as="geometry">
            <mxRectangle width="153.99996243990367" height="30" as="alternateBounds" />
          </mxGeometry>
        </mxCell>
        <mxCell id="zgshCLYlO7Ul1Uow3WSi-245" value="" style="shape=tableRow;horizontal=0;startSize=0;swimlaneHead=0;swimlaneBody=0;fillColor=none;collapsible=0;dropTarget=0;points=[[0,0.5],[1,0.5]];portConstraint=eastwest;top=0;left=0;right=0;bottom=0;fontSize=20;labelBackgroundColor=none;labelBorderColor=none;textShadow=1;whiteSpace=wrap;html=1;" parent="zgshCLYlO7Ul1Uow3WSi-241" vertex="1">
          <mxGeometry y="58" width="193.99996243990367" height="37" as="geometry" />
        </mxCell>
        <mxCell id="zgshCLYlO7Ul1Uow3WSi-246" value="" style="shape=partialRectangle;connectable=0;fillColor=none;top=0;left=0;bottom=0;right=0;editable=1;overflow=hidden;whiteSpace=wrap;html=1;fontSize=20;labelBackgroundColor=none;labelBorderColor=none;textShadow=1;" parent="zgshCLYlO7Ul1Uow3WSi-245" vertex="1">
          <mxGeometry width="40" height="37" as="geometry">
            <mxRectangle width="40" height="37" as="alternateBounds" />
          </mxGeometry>
        </mxCell>
        <mxCell id="zgshCLYlO7Ul1Uow3WSi-247" value="DateAndTime" style="shape=partialRectangle;connectable=0;fillColor=none;top=0;left=0;bottom=0;right=0;align=left;spacingLeft=6;overflow=hidden;whiteSpace=wrap;html=1;fontSize=20;labelBackgroundColor=none;labelBorderColor=none;textShadow=1;" parent="zgshCLYlO7Ul1Uow3WSi-245" vertex="1">
          <mxGeometry x="40" width="153.99996243990367" height="37" as="geometry">
            <mxRectangle width="153.99996243990367" height="37" as="alternateBounds" />
          </mxGeometry>
        </mxCell>
        <mxCell id="zgshCLYlO7Ul1Uow3WSi-248" value="" style="shape=tableRow;horizontal=0;startSize=0;swimlaneHead=0;swimlaneBody=0;fillColor=none;collapsible=0;dropTarget=0;points=[[0,0.5],[1,0.5]];portConstraint=eastwest;top=0;left=0;right=0;bottom=0;fontSize=20;labelBackgroundColor=none;labelBorderColor=none;textShadow=1;whiteSpace=wrap;html=1;" parent="zgshCLYlO7Ul1Uow3WSi-241" vertex="1">
          <mxGeometry y="95" width="193.99996243990367" height="25" as="geometry" />
        </mxCell>
        <mxCell id="zgshCLYlO7Ul1Uow3WSi-249" value="" style="shape=partialRectangle;connectable=0;fillColor=none;top=0;left=0;bottom=0;right=0;editable=1;overflow=hidden;whiteSpace=wrap;html=1;fontSize=20;labelBackgroundColor=none;labelBorderColor=none;textShadow=1;" parent="zgshCLYlO7Ul1Uow3WSi-248" vertex="1">
          <mxGeometry width="40" height="25" as="geometry">
            <mxRectangle width="40" height="25" as="alternateBounds" />
          </mxGeometry>
        </mxCell>
        <mxCell id="zgshCLYlO7Ul1Uow3WSi-250" value="Location" style="shape=partialRectangle;connectable=0;fillColor=none;top=0;left=0;bottom=0;right=0;align=left;spacingLeft=6;overflow=hidden;whiteSpace=wrap;html=1;fontSize=20;labelBackgroundColor=none;labelBorderColor=none;textShadow=1;" parent="zgshCLYlO7Ul1Uow3WSi-248" vertex="1">
          <mxGeometry x="40" width="153.99996243990367" height="25" as="geometry">
            <mxRectangle width="153.99996243990367" height="25" as="alternateBounds" />
          </mxGeometry>
        </mxCell>
        <mxCell id="zgshCLYlO7Ul1Uow3WSi-251" value="" style="shape=tableRow;horizontal=0;startSize=0;swimlaneHead=0;swimlaneBody=0;fillColor=none;collapsible=0;dropTarget=0;points=[[0,0.5],[1,0.5]];portConstraint=eastwest;top=0;left=0;right=0;bottom=0;fontSize=20;labelBackgroundColor=none;labelBorderColor=none;textShadow=1;whiteSpace=wrap;html=1;" parent="zgshCLYlO7Ul1Uow3WSi-241" vertex="1">
          <mxGeometry y="120" width="193.99996243990367" height="30" as="geometry" />
        </mxCell>
        <mxCell id="zgshCLYlO7Ul1Uow3WSi-252" value="FK" style="shape=partialRectangle;connectable=0;fillColor=none;top=0;left=0;bottom=0;right=0;editable=1;overflow=hidden;whiteSpace=wrap;html=1;fontSize=20;labelBackgroundColor=none;labelBorderColor=none;textShadow=1;" parent="zgshCLYlO7Ul1Uow3WSi-251" vertex="1">
          <mxGeometry width="40" height="30" as="geometry">
            <mxRectangle width="40" height="30" as="alternateBounds" />
          </mxGeometry>
        </mxCell>
        <mxCell id="zgshCLYlO7Ul1Uow3WSi-253" value="EmployeeID" style="shape=partialRectangle;connectable=0;fillColor=none;top=0;left=0;bottom=0;right=0;align=left;spacingLeft=6;overflow=hidden;whiteSpace=wrap;html=1;fontSize=20;labelBackgroundColor=none;labelBorderColor=none;textShadow=1;" parent="zgshCLYlO7Ul1Uow3WSi-251" vertex="1">
          <mxGeometry x="40" width="153.99996243990367" height="30" as="geometry">
            <mxRectangle width="153.99996243990367" height="30" as="alternateBounds" />
          </mxGeometry>
        </mxCell>
        <mxCell id="zgshCLYlO7Ul1Uow3WSi-254" value="" style="shape=tableRow;horizontal=0;startSize=0;swimlaneHead=0;swimlaneBody=0;fillColor=none;collapsible=0;dropTarget=0;points=[[0,0.5],[1,0.5]];portConstraint=eastwest;top=0;left=0;right=0;bottom=0;fontSize=20;labelBackgroundColor=none;labelBorderColor=none;textShadow=1;whiteSpace=wrap;html=1;" parent="zgshCLYlO7Ul1Uow3WSi-241" vertex="1">
          <mxGeometry y="150" width="193.99996243990367" height="30" as="geometry" />
        </mxCell>
        <mxCell id="zgshCLYlO7Ul1Uow3WSi-255" value="" style="shape=partialRectangle;connectable=0;fillColor=none;top=0;left=0;bottom=0;right=0;editable=1;overflow=hidden;whiteSpace=wrap;html=1;fontSize=20;labelBackgroundColor=none;labelBorderColor=none;textShadow=1;" parent="zgshCLYlO7Ul1Uow3WSi-254" vertex="1">
          <mxGeometry width="40" height="30" as="geometry">
            <mxRectangle width="40" height="30" as="alternateBounds" />
          </mxGeometry>
        </mxCell>
        <mxCell id="zgshCLYlO7Ul1Uow3WSi-256" value="Status" style="shape=partialRectangle;connectable=0;fillColor=none;top=0;left=0;bottom=0;right=0;align=left;spacingLeft=6;overflow=hidden;whiteSpace=wrap;html=1;fontSize=20;labelBackgroundColor=none;labelBorderColor=none;textShadow=1;" parent="zgshCLYlO7Ul1Uow3WSi-254" vertex="1">
          <mxGeometry x="40" width="153.99996243990367" height="30" as="geometry">
            <mxRectangle width="153.99996243990367" height="30" as="alternateBounds" />
          </mxGeometry>
        </mxCell>
        <mxCell id="zgshCLYlO7Ul1Uow3WSi-257" value="" style="shape=tableRow;horizontal=0;startSize=0;swimlaneHead=0;swimlaneBody=0;fillColor=none;collapsible=0;dropTarget=0;points=[[0,0.5],[1,0.5]];portConstraint=eastwest;top=0;left=0;right=0;bottom=0;fontSize=20;labelBackgroundColor=none;labelBorderColor=none;textShadow=1;whiteSpace=wrap;html=1;" parent="zgshCLYlO7Ul1Uow3WSi-241" vertex="1">
          <mxGeometry y="180" width="193.99996243990367" height="30" as="geometry" />
        </mxCell>
        <mxCell id="zgshCLYlO7Ul1Uow3WSi-258" value="" style="shape=partialRectangle;connectable=0;fillColor=none;top=0;left=0;bottom=0;right=0;editable=1;overflow=hidden;whiteSpace=wrap;html=1;fontSize=20;labelBackgroundColor=none;labelBorderColor=none;textShadow=1;" parent="zgshCLYlO7Ul1Uow3WSi-257" vertex="1">
          <mxGeometry width="40" height="30" as="geometry">
            <mxRectangle width="40" height="30" as="alternateBounds" />
          </mxGeometry>
        </mxCell>
        <mxCell id="zgshCLYlO7Ul1Uow3WSi-259" value="RespondTime" style="shape=partialRectangle;connectable=0;fillColor=none;top=0;left=0;bottom=0;right=0;align=left;spacingLeft=6;overflow=hidden;whiteSpace=wrap;html=1;fontSize=20;labelBackgroundColor=none;labelBorderColor=none;textShadow=1;" parent="zgshCLYlO7Ul1Uow3WSi-257" vertex="1">
          <mxGeometry x="40" width="153.99996243990367" height="30" as="geometry">
            <mxRectangle width="153.99996243990367" height="30" as="alternateBounds" />
          </mxGeometry>
        </mxCell>
        <mxCell id="zgshCLYlO7Ul1Uow3WSi-260" value="" style="shape=tableRow;horizontal=0;startSize=0;swimlaneHead=0;swimlaneBody=0;fillColor=none;collapsible=0;dropTarget=0;points=[[0,0.5],[1,0.5]];portConstraint=eastwest;top=0;left=0;right=0;bottom=0;fontSize=20;labelBackgroundColor=none;labelBorderColor=none;textShadow=1;whiteSpace=wrap;html=1;" parent="zgshCLYlO7Ul1Uow3WSi-241" vertex="1">
          <mxGeometry y="210" width="193.99996243990367" height="35" as="geometry" />
        </mxCell>
        <mxCell id="zgshCLYlO7Ul1Uow3WSi-261" value="" style="shape=partialRectangle;connectable=0;fillColor=none;top=0;left=0;bottom=0;right=0;editable=1;overflow=hidden;whiteSpace=wrap;html=1;fontSize=20;labelBackgroundColor=none;labelBorderColor=none;textShadow=1;" parent="zgshCLYlO7Ul1Uow3WSi-260" vertex="1">
          <mxGeometry width="40" height="35" as="geometry">
            <mxRectangle width="40" height="35" as="alternateBounds" />
          </mxGeometry>
        </mxCell>
        <mxCell id="zgshCLYlO7Ul1Uow3WSi-262" value="ActionTaken" style="shape=partialRectangle;connectable=0;fillColor=none;top=0;left=0;bottom=0;right=0;align=left;spacingLeft=6;overflow=hidden;whiteSpace=wrap;html=1;fontSize=20;labelBackgroundColor=none;labelBorderColor=none;textShadow=1;" parent="zgshCLYlO7Ul1Uow3WSi-260" vertex="1">
          <mxGeometry x="40" width="153.99996243990367" height="35" as="geometry">
            <mxRectangle width="153.99996243990367" height="35" as="alternateBounds" />
          </mxGeometry>
        </mxCell>
        <mxCell id="zgshCLYlO7Ul1Uow3WSi-266" value="" style="fontSize=20;html=1;endArrow=ERoneToMany;startArrow=ERmandOne;rounded=0;labelBackgroundColor=none;entryX=-0.019;entryY=0.058;entryDx=0;entryDy=0;entryPerimeter=0;" parent="1" target="zgshCLYlO7Ul1Uow3WSi-2" edge="1">
          <mxGeometry width="100" height="100" relative="1" as="geometry">
            <mxPoint x="-552" y="584" as="sourcePoint" />
            <mxPoint x="-690" y="71" as="targetPoint" />
            <Array as="points">
              <mxPoint x="-545" y="112" />
            </Array>
          </mxGeometry>
        </mxCell>
        <mxCell id="zgshCLYlO7Ul1Uow3WSi-334" value="Works In" style="edgeLabel;html=1;align=center;verticalAlign=middle;resizable=0;points=[];fontSize=20;labelBackgroundColor=#66B2FF;fontStyle=1;labelBorderColor=#3399FF;" parent="zgshCLYlO7Ul1Uow3WSi-266" vertex="1" connectable="0">
          <mxGeometry x="-0.1288" y="-1" relative="1" as="geometry">
            <mxPoint x="112" y="-8" as="offset" />
          </mxGeometry>
        </mxCell>
        <mxCell id="zgshCLYlO7Ul1Uow3WSi-268" value="" style="fontSize=20;html=1;endArrow=ERoneToMany;startArrow=ERoneToMany;rounded=0;exitX=1;exitY=0.5;exitDx=0;exitDy=0;entryX=0.007;entryY=0.924;entryDx=0;entryDy=0;entryPerimeter=0;labelBackgroundColor=none;" parent="1" target="zgshCLYlO7Ul1Uow3WSi-90" edge="1">
          <mxGeometry width="100" height="100" relative="1" as="geometry">
            <mxPoint x="260" y="166.88" as="sourcePoint" />
            <mxPoint x="640" y="167" as="targetPoint" />
          </mxGeometry>
        </mxCell>
        <mxCell id="zgshCLYlO7Ul1Uow3WSi-290" value="Visited by" style="edgeLabel;html=1;align=center;verticalAlign=middle;resizable=0;points=[];fontSize=20;labelBackgroundColor=#66B2FF;" parent="zgshCLYlO7Ul1Uow3WSi-268" vertex="1" connectable="0">
          <mxGeometry x="-0.1278" y="-1" relative="1" as="geometry">
            <mxPoint as="offset" />
          </mxGeometry>
        </mxCell>
        <mxCell id="zgshCLYlO7Ul1Uow3WSi-272" value="" style="fontSize=20;html=1;endArrow=ERoneToMany;startArrow=ERmandOne;rounded=0;exitX=-0.011;exitY=1.008;exitDx=0;exitDy=0;exitPerimeter=0;entryX=-0.011;entryY=-0.07;entryDx=0;entryDy=0;entryPerimeter=0;labelBackgroundColor=none;" parent="1" source="zgshCLYlO7Ul1Uow3WSi-14" target="zgshCLYlO7Ul1Uow3WSi-171" edge="1">
          <mxGeometry width="100" height="100" relative="1" as="geometry">
            <mxPoint x="10" y="200" as="sourcePoint" />
            <mxPoint x="70" y="810" as="targetPoint" />
            <Array as="points">
              <mxPoint x="10" y="260" />
              <mxPoint x="10" y="808" />
            </Array>
          </mxGeometry>
        </mxCell>
        <mxCell id="zgshCLYlO7Ul1Uow3WSi-282" value="Captured" style="edgeLabel;html=1;align=center;verticalAlign=middle;resizable=0;points=[];fontSize=20;labelBackgroundColor=#66B2FF;" parent="zgshCLYlO7Ul1Uow3WSi-272" vertex="1" connectable="0">
          <mxGeometry x="0.2285" y="5" relative="1" as="geometry">
            <mxPoint as="offset" />
          </mxGeometry>
        </mxCell>
        <mxCell id="zgshCLYlO7Ul1Uow3WSi-273" value="" style="fontSize=20;html=1;endArrow=ERoneToMany;startArrow=ERmandOne;rounded=0;labelBackgroundColor=none;entryX=0.668;entryY=1.233;entryDx=0;entryDy=0;entryPerimeter=0;exitX=1.002;exitY=-0.021;exitDx=0;exitDy=0;exitPerimeter=0;" parent="1" source="zgshCLYlO7Ul1Uow3WSi-210" target="zgshCLYlO7Ul1Uow3WSi-20" edge="1">
          <mxGeometry width="100" height="100" relative="1" as="geometry">
            <mxPoint x="85" y="490" as="sourcePoint" />
            <mxPoint x="199" y="448" as="targetPoint" />
            <Array as="points">
              <mxPoint x="200" y="414" />
            </Array>
          </mxGeometry>
        </mxCell>
        <mxCell id="zgshCLYlO7Ul1Uow3WSi-283" value="Captured" style="edgeLabel;html=1;align=center;verticalAlign=middle;resizable=0;points=[];fontSize=20;labelBackgroundColor=#66B2FF;" parent="zgshCLYlO7Ul1Uow3WSi-273" vertex="1" connectable="0">
          <mxGeometry x="-0.2508" y="1" relative="1" as="geometry">
            <mxPoint as="offset" />
          </mxGeometry>
        </mxCell>
        <mxCell id="zgshCLYlO7Ul1Uow3WSi-280" value="" style="fontSize=20;html=1;endArrow=ERoneToMany;startArrow=ERmandOne;rounded=0;labelBackgroundColor=none;entryX=0.25;entryY=0;entryDx=0;entryDy=0;" parent="1" target="zgshCLYlO7Ul1Uow3WSi-45" edge="1">
          <mxGeometry width="100" height="100" relative="1" as="geometry">
            <mxPoint x="-110" y="483" as="sourcePoint" />
            <mxPoint x="-293" y="537" as="targetPoint" />
            <Array as="points">
              <mxPoint x="-110" y="521" />
              <mxPoint x="-284" y="521" />
            </Array>
          </mxGeometry>
        </mxCell>
        <mxCell id="zgshCLYlO7Ul1Uow3WSi-287" value="Handled by" style="edgeLabel;html=1;align=center;verticalAlign=middle;resizable=0;points=[];fontSize=20;labelBackgroundColor=#66B2FF;" parent="zgshCLYlO7Ul1Uow3WSi-280" vertex="1" connectable="0">
          <mxGeometry x="-0.0154" y="-4" relative="1" as="geometry">
            <mxPoint as="offset" />
          </mxGeometry>
        </mxCell>
        <mxCell id="zgshCLYlO7Ul1Uow3WSi-285" value="" style="fontSize=20;html=1;endArrow=ERoneToMany;startArrow=ERmandOne;rounded=0;exitX=1.027;exitY=-0.043;exitDx=0;exitDy=0;exitPerimeter=0;labelBackgroundColor=none;" parent="1" source="zgshCLYlO7Ul1Uow3WSi-14" edge="1">
          <mxGeometry width="100" height="100" relative="1" as="geometry">
            <mxPoint x="290" y="220" as="sourcePoint" />
            <mxPoint x="440" y="840" as="targetPoint" />
            <Array as="points">
              <mxPoint x="390" y="230" />
              <mxPoint x="390" y="840" />
            </Array>
          </mxGeometry>
        </mxCell>
        <mxCell id="zgshCLYlO7Ul1Uow3WSi-286" value="Have" style="edgeLabel;html=1;align=center;verticalAlign=middle;resizable=0;points=[];fontSize=20;labelBackgroundColor=#66B2FF;" parent="zgshCLYlO7Ul1Uow3WSi-285" vertex="1" connectable="0">
          <mxGeometry x="0.1044" relative="1" as="geometry">
            <mxPoint y="1" as="offset" />
          </mxGeometry>
        </mxCell>
        <mxCell id="zgshCLYlO7Ul1Uow3WSi-326" value="" style="fontSize=20;html=1;endArrow=ERoneToMany;startArrow=ERmandOne;rounded=0;labelBackgroundColor=none;entryX=0.5;entryY=0;entryDx=0;entryDy=0;" parent="1" edge="1">
          <mxGeometry width="100" height="100" relative="1" as="geometry">
            <mxPoint x="-168" y="798" as="sourcePoint" />
            <mxPoint x="-167.98001878004786" y="1051.27" as="targetPoint" />
            <Array as="points">
              <mxPoint x="-167.98" y="1043.27" />
            </Array>
          </mxGeometry>
        </mxCell>
        <mxCell id="zgshCLYlO7Ul1Uow3WSi-327" value="Belongs to" style="edgeLabel;html=1;align=center;verticalAlign=middle;resizable=0;points=[];fontSize=20;labelBackgroundColor=#66B2FF;" parent="zgshCLYlO7Ul1Uow3WSi-326" vertex="1" connectable="0">
          <mxGeometry x="-0.0136" y="-2" relative="1" as="geometry">
            <mxPoint x="6" y="7" as="offset" />
          </mxGeometry>
        </mxCell>
        <mxCell id="zgshCLYlO7Ul1Uow3WSi-329" value="" style="fontSize=20;html=1;endArrow=ERoneToMany;startArrow=ERoneToMany;rounded=0;exitX=1;exitY=0.5;exitDx=0;exitDy=0;entryX=0.623;entryY=1.168;entryDx=0;entryDy=0;entryPerimeter=0;labelBackgroundColor=none;" parent="1" source="zgshCLYlO7Ul1Uow3WSi-220" target="zgshCLYlO7Ul1Uow3WSi-297" edge="1">
          <mxGeometry width="100" height="100" relative="1" as="geometry">
            <mxPoint x="650" y="790" as="sourcePoint" />
            <mxPoint x="760" y="350" as="targetPoint" />
            <Array as="points">
              <mxPoint x="760" y="895" />
            </Array>
          </mxGeometry>
        </mxCell>
        <mxCell id="zgshCLYlO7Ul1Uow3WSi-330" value="Purchase" style="edgeLabel;html=1;align=center;verticalAlign=middle;resizable=0;points=[];fontSize=20;labelBackgroundColor=#66B2FF;" parent="zgshCLYlO7Ul1Uow3WSi-329" vertex="1" connectable="0">
          <mxGeometry x="0.2091" y="-1" relative="1" as="geometry">
            <mxPoint as="offset" />
          </mxGeometry>
        </mxCell>
        <mxCell id="vXpEMfY0fOv4pqHwBAgA-1" value="ShopEmployees" style="shape=table;startSize=38;container=1;collapsible=1;childLayout=tableLayout;fixedRows=1;rowLines=0;fontStyle=1;align=center;resizeLast=1;html=1;fontSize=20;labelBackgroundColor=none;labelBorderColor=none;textShadow=1;whiteSpace=wrap;" parent="1" vertex="1">
          <mxGeometry x="-711" y="590" width="180" height="250.81807084517004" as="geometry" />
        </mxCell>
        <mxCell id="vXpEMfY0fOv4pqHwBAgA-2" value="" style="shape=tableRow;horizontal=0;startSize=0;swimlaneHead=0;swimlaneBody=0;fillColor=none;collapsible=0;dropTarget=0;points=[[0,0.5],[1,0.5]];portConstraint=eastwest;top=0;left=0;right=0;bottom=1;fontSize=20;labelBackgroundColor=none;labelBorderColor=none;textShadow=1;whiteSpace=wrap;html=1;" parent="vXpEMfY0fOv4pqHwBAgA-1" vertex="1">
          <mxGeometry y="38" width="180" height="54" as="geometry" />
        </mxCell>
        <mxCell id="vXpEMfY0fOv4pqHwBAgA-3" value="PK" style="shape=partialRectangle;connectable=0;fillColor=none;top=0;left=0;bottom=0;right=0;fontStyle=1;overflow=hidden;whiteSpace=wrap;html=1;fontSize=20;labelBackgroundColor=none;labelBorderColor=none;textShadow=1;" parent="vXpEMfY0fOv4pqHwBAgA-2" vertex="1">
          <mxGeometry width="30" height="54" as="geometry">
            <mxRectangle width="30" height="54" as="alternateBounds" />
          </mxGeometry>
        </mxCell>
        <mxCell id="vXpEMfY0fOv4pqHwBAgA-4" value="EmployeeID" style="shape=partialRectangle;connectable=0;fillColor=none;top=0;left=0;bottom=0;right=0;align=left;spacingLeft=6;fontStyle=5;overflow=hidden;whiteSpace=wrap;html=1;fontSize=20;labelBackgroundColor=none;labelBorderColor=none;textShadow=1;" parent="vXpEMfY0fOv4pqHwBAgA-2" vertex="1">
          <mxGeometry x="30" width="150" height="54" as="geometry">
            <mxRectangle width="150" height="54" as="alternateBounds" />
          </mxGeometry>
        </mxCell>
        <mxCell id="vXpEMfY0fOv4pqHwBAgA-5" value="" style="shape=tableRow;horizontal=0;startSize=0;swimlaneHead=0;swimlaneBody=0;fillColor=none;collapsible=0;dropTarget=0;points=[[0,0.5],[1,0.5]];portConstraint=eastwest;top=0;left=0;right=0;bottom=0;fontSize=20;labelBackgroundColor=none;labelBorderColor=none;textShadow=1;whiteSpace=wrap;html=1;" parent="vXpEMfY0fOv4pqHwBAgA-1" vertex="1">
          <mxGeometry y="92" width="180" height="26" as="geometry" />
        </mxCell>
        <mxCell id="vXpEMfY0fOv4pqHwBAgA-6" value="FK" style="shape=partialRectangle;connectable=0;fillColor=none;top=0;left=0;bottom=0;right=0;editable=1;overflow=hidden;whiteSpace=wrap;html=1;fontSize=20;labelBackgroundColor=none;labelBorderColor=none;textShadow=1;" parent="vXpEMfY0fOv4pqHwBAgA-5" vertex="1">
          <mxGeometry width="30" height="26" as="geometry">
            <mxRectangle width="30" height="26" as="alternateBounds" />
          </mxGeometry>
        </mxCell>
        <mxCell id="vXpEMfY0fOv4pqHwBAgA-7" value="ShopID" style="shape=partialRectangle;connectable=0;fillColor=none;top=0;left=0;bottom=0;right=0;align=left;spacingLeft=6;overflow=hidden;whiteSpace=wrap;html=1;fontSize=20;labelBackgroundColor=none;labelBorderColor=none;textShadow=1;" parent="vXpEMfY0fOv4pqHwBAgA-5" vertex="1">
          <mxGeometry x="30" width="150" height="26" as="geometry">
            <mxRectangle width="150" height="26" as="alternateBounds" />
          </mxGeometry>
        </mxCell>
        <mxCell id="vXpEMfY0fOv4pqHwBAgA-8" value="" style="shape=tableRow;horizontal=0;startSize=0;swimlaneHead=0;swimlaneBody=0;fillColor=none;collapsible=0;dropTarget=0;points=[[0,0.5],[1,0.5]];portConstraint=eastwest;top=0;left=0;right=0;bottom=0;fontSize=20;labelBackgroundColor=none;labelBorderColor=none;textShadow=1;whiteSpace=wrap;html=1;" parent="vXpEMfY0fOv4pqHwBAgA-1" vertex="1">
          <mxGeometry y="118" width="180" height="26" as="geometry" />
        </mxCell>
        <mxCell id="vXpEMfY0fOv4pqHwBAgA-9" value="" style="shape=partialRectangle;connectable=0;fillColor=none;top=0;left=0;bottom=0;right=0;editable=1;overflow=hidden;whiteSpace=wrap;html=1;fontSize=20;labelBackgroundColor=none;labelBorderColor=none;textShadow=1;" parent="vXpEMfY0fOv4pqHwBAgA-8" vertex="1">
          <mxGeometry width="30" height="26" as="geometry">
            <mxRectangle width="30" height="26" as="alternateBounds" />
          </mxGeometry>
        </mxCell>
        <mxCell id="vXpEMfY0fOv4pqHwBAgA-10" value="" style="shape=partialRectangle;connectable=0;fillColor=none;top=0;left=0;bottom=0;right=0;align=left;spacingLeft=6;overflow=hidden;whiteSpace=wrap;html=1;fontSize=20;labelBackgroundColor=none;labelBorderColor=none;textShadow=1;" parent="vXpEMfY0fOv4pqHwBAgA-8" vertex="1">
          <mxGeometry x="30" width="150" height="26" as="geometry">
            <mxRectangle width="150" height="26" as="alternateBounds" />
          </mxGeometry>
        </mxCell>
        <mxCell id="vXpEMfY0fOv4pqHwBAgA-11" value="" style="shape=tableRow;horizontal=0;startSize=0;swimlaneHead=0;swimlaneBody=0;fillColor=none;collapsible=0;dropTarget=0;points=[[0,0.5],[1,0.5]];portConstraint=eastwest;top=0;left=0;right=0;bottom=0;fontSize=20;labelBackgroundColor=none;labelBorderColor=none;textShadow=1;whiteSpace=wrap;html=1;" parent="vXpEMfY0fOv4pqHwBAgA-1" vertex="1">
          <mxGeometry y="144" width="180" height="30" as="geometry" />
        </mxCell>
        <mxCell id="vXpEMfY0fOv4pqHwBAgA-12" value="" style="shape=partialRectangle;connectable=0;fillColor=none;top=0;left=0;bottom=0;right=0;editable=1;overflow=hidden;whiteSpace=wrap;html=1;fontSize=20;labelBackgroundColor=none;labelBorderColor=none;textShadow=1;" parent="vXpEMfY0fOv4pqHwBAgA-11" vertex="1">
          <mxGeometry width="30" height="30" as="geometry">
            <mxRectangle width="30" height="30" as="alternateBounds" />
          </mxGeometry>
        </mxCell>
        <mxCell id="vXpEMfY0fOv4pqHwBAgA-13" value="" style="shape=partialRectangle;connectable=0;fillColor=none;top=0;left=0;bottom=0;right=0;align=left;spacingLeft=6;overflow=hidden;whiteSpace=wrap;html=1;fontSize=20;labelBackgroundColor=none;labelBorderColor=none;textShadow=1;" parent="vXpEMfY0fOv4pqHwBAgA-11" vertex="1">
          <mxGeometry x="30" width="150" height="30" as="geometry">
            <mxRectangle width="150" height="30" as="alternateBounds" />
          </mxGeometry>
        </mxCell>
        <mxCell id="vXpEMfY0fOv4pqHwBAgA-14" value="" style="shape=tableRow;horizontal=0;startSize=0;swimlaneHead=0;swimlaneBody=0;fillColor=none;collapsible=0;dropTarget=0;points=[[0,0.5],[1,0.5]];portConstraint=eastwest;top=0;left=0;right=0;bottom=0;fontSize=20;labelBackgroundColor=none;labelBorderColor=none;textShadow=1;whiteSpace=wrap;html=1;" parent="vXpEMfY0fOv4pqHwBAgA-1" vertex="1">
          <mxGeometry y="174" width="180" height="22" as="geometry" />
        </mxCell>
        <mxCell id="vXpEMfY0fOv4pqHwBAgA-15" value="" style="shape=partialRectangle;connectable=0;fillColor=none;top=0;left=0;bottom=0;right=0;editable=1;overflow=hidden;whiteSpace=wrap;html=1;fontSize=20;labelBackgroundColor=none;labelBorderColor=none;textShadow=1;" parent="vXpEMfY0fOv4pqHwBAgA-14" vertex="1">
          <mxGeometry width="30" height="22" as="geometry">
            <mxRectangle width="30" height="22" as="alternateBounds" />
          </mxGeometry>
        </mxCell>
        <mxCell id="vXpEMfY0fOv4pqHwBAgA-16" value="" style="shape=partialRectangle;connectable=0;fillColor=none;top=0;left=0;bottom=0;right=0;align=left;spacingLeft=6;overflow=hidden;whiteSpace=wrap;html=1;fontSize=20;labelBackgroundColor=none;labelBorderColor=none;textShadow=1;" parent="vXpEMfY0fOv4pqHwBAgA-14" vertex="1">
          <mxGeometry x="30" width="150" height="22" as="geometry">
            <mxRectangle width="150" height="22" as="alternateBounds" />
          </mxGeometry>
        </mxCell>
        <mxCell id="vXpEMfY0fOv4pqHwBAgA-17" value="" style="shape=tableRow;horizontal=0;startSize=0;swimlaneHead=0;swimlaneBody=0;fillColor=none;collapsible=0;dropTarget=0;points=[[0,0.5],[1,0.5]];portConstraint=eastwest;top=0;left=0;right=0;bottom=0;fontSize=20;labelBackgroundColor=none;labelBorderColor=none;textShadow=1;whiteSpace=wrap;html=1;" parent="vXpEMfY0fOv4pqHwBAgA-1" vertex="1">
          <mxGeometry y="196" width="180" height="34" as="geometry" />
        </mxCell>
        <mxCell id="vXpEMfY0fOv4pqHwBAgA-18" value="" style="shape=partialRectangle;connectable=0;fillColor=none;top=0;left=0;bottom=0;right=0;editable=1;overflow=hidden;whiteSpace=wrap;html=1;fontSize=20;labelBackgroundColor=none;labelBorderColor=none;textShadow=1;" parent="vXpEMfY0fOv4pqHwBAgA-17" vertex="1">
          <mxGeometry width="30" height="34" as="geometry">
            <mxRectangle width="30" height="34" as="alternateBounds" />
          </mxGeometry>
        </mxCell>
        <mxCell id="vXpEMfY0fOv4pqHwBAgA-19" value="" style="shape=partialRectangle;connectable=0;fillColor=none;top=0;left=0;bottom=0;right=0;align=left;spacingLeft=6;overflow=hidden;whiteSpace=wrap;html=1;fontSize=20;labelBackgroundColor=none;labelBorderColor=none;textShadow=1;" parent="vXpEMfY0fOv4pqHwBAgA-17" vertex="1">
          <mxGeometry x="30" width="150" height="34" as="geometry">
            <mxRectangle width="150" height="34" as="alternateBounds" />
          </mxGeometry>
        </mxCell>
        <mxCell id="vXpEMfY0fOv4pqHwBAgA-20" value="" style="shape=tableRow;horizontal=0;startSize=0;swimlaneHead=0;swimlaneBody=0;fillColor=none;collapsible=0;dropTarget=0;points=[[0,0.5],[1,0.5]];portConstraint=eastwest;top=0;left=0;right=0;bottom=0;fontSize=20;labelBackgroundColor=none;labelBorderColor=none;textShadow=1;whiteSpace=wrap;html=1;" parent="vXpEMfY0fOv4pqHwBAgA-1" vertex="1">
          <mxGeometry y="230" width="180" height="21" as="geometry" />
        </mxCell>
        <mxCell id="vXpEMfY0fOv4pqHwBAgA-21" value="" style="shape=partialRectangle;connectable=0;fillColor=none;top=0;left=0;bottom=0;right=0;editable=1;overflow=hidden;whiteSpace=wrap;html=1;fontSize=20;labelBackgroundColor=none;labelBorderColor=none;textShadow=1;" parent="vXpEMfY0fOv4pqHwBAgA-20" vertex="1">
          <mxGeometry width="30" height="21" as="geometry">
            <mxRectangle width="30" height="21" as="alternateBounds" />
          </mxGeometry>
        </mxCell>
        <mxCell id="vXpEMfY0fOv4pqHwBAgA-22" value="" style="shape=partialRectangle;connectable=0;fillColor=none;top=0;left=0;bottom=0;right=0;align=left;spacingLeft=6;overflow=hidden;whiteSpace=wrap;html=1;fontSize=20;labelBackgroundColor=none;labelBorderColor=none;textShadow=1;" parent="vXpEMfY0fOv4pqHwBAgA-20" vertex="1">
          <mxGeometry x="30" width="150" height="21" as="geometry">
            <mxRectangle width="150" height="21" as="alternateBounds" />
          </mxGeometry>
        </mxCell>
        <mxCell id="vXpEMfY0fOv4pqHwBAgA-23" value="&lt;font style=&quot;background-color: rgb(102, 178, 255); font-size: 19px;&quot;&gt;Extends&lt;/font&gt;" style="endArrow=block;endSize=16;endFill=0;html=1;rounded=0;" parent="1" source="vXpEMfY0fOv4pqHwBAgA-20" target="zgshCLYlO7Ul1Uow3WSi-23" edge="1">
          <mxGeometry width="160" relative="1" as="geometry">
            <mxPoint x="-615" y="532" as="sourcePoint" />
            <mxPoint x="-534.7429837518462" y="1103" as="targetPoint" />
            <Array as="points">
              <mxPoint x="-621" y="954" />
              <mxPoint x="-439" y="958" />
            </Array>
          </mxGeometry>
        </mxCell>
        <mxCell id="vXpEMfY0fOv4pqHwBAgA-31" value="" style="endArrow=diamondThin;endFill=0;endSize=24;html=1;rounded=0;entryX=0.1;entryY=-0.005;entryDx=0;entryDy=0;entryPerimeter=0;" parent="1" edge="1">
          <mxGeometry width="160" relative="1" as="geometry">
            <mxPoint x="263" y="278" as="sourcePoint" />
            <mxPoint x="477" y="401.24999999999955" as="targetPoint" />
            <Array as="points">
              <mxPoint x="481" y="283" />
            </Array>
          </mxGeometry>
        </mxCell>
        <mxCell id="vXpEMfY0fOv4pqHwBAgA-32" value="Have" style="edgeLabel;html=1;align=center;verticalAlign=middle;resizable=0;points=[];fontStyle=1;labelBackgroundColor=#00aaff;fontSize=18;" parent="vXpEMfY0fOv4pqHwBAgA-31" vertex="1" connectable="0">
          <mxGeometry x="0.1257" y="5" relative="1" as="geometry">
            <mxPoint as="offset" />
          </mxGeometry>
        </mxCell>
        <mxCell id="vXpEMfY0fOv4pqHwBAgA-33" value="" style="endArrow=diamondThin;endFill=0;endSize=24;html=1;rounded=0;fontStyle=1;fontSize=16;" parent="1" edge="1">
          <mxGeometry width="160" relative="1" as="geometry">
            <mxPoint x="264" y="943" as="sourcePoint" />
            <mxPoint x="433" y="943" as="targetPoint" />
          </mxGeometry>
        </mxCell>
        <mxCell id="vXpEMfY0fOv4pqHwBAgA-34" value="&lt;font style=&quot;font-size: 19px;&quot;&gt;&lt;b style=&quot;font-size: 19px; background-color: rgb(51, 153, 255);&quot;&gt;Contains&lt;/b&gt;&lt;/font&gt;" style="edgeLabel;html=1;align=center;verticalAlign=middle;resizable=0;points=[];fontSize=19;" parent="vXpEMfY0fOv4pqHwBAgA-33" vertex="1" connectable="0">
          <mxGeometry x="0.0091" y="-2" relative="1" as="geometry">
            <mxPoint as="offset" />
          </mxGeometry>
        </mxCell>
        <mxCell id="3ngplKk9UJcaMd60aN9l-4" value="&lt;font style=&quot;font-size: 19px; background-color: rgb(102, 178, 255);&quot;&gt;Extends&lt;/font&gt;" style="endArrow=block;endSize=16;endFill=0;html=1;rounded=0;exitX=0.318;exitY=1.172;exitDx=0;exitDy=0;exitPerimeter=0;entryX=0.814;entryY=0.005;entryDx=0;entryDy=0;entryPerimeter=0;" edge="1" parent="1" source="zgshCLYlO7Ul1Uow3WSi-61" target="zgshCLYlO7Ul1Uow3WSi-23">
          <mxGeometry width="160" relative="1" as="geometry">
            <mxPoint x="-300" y="807" as="sourcePoint" />
            <mxPoint x="-362" y="1033" as="targetPoint" />
            <Array as="points">
              <mxPoint x="-272" y="958" />
              <mxPoint x="-382" y="958" />
            </Array>
          </mxGeometry>
        </mxCell>
      </root>
    </mxGraphModel>
  </diagram>
</mxfile>
